<?xml version="1.0" standalone="no"?>
<!DOCTYPE svg PUBLIC "-//W3C//DTD SVG 20010904//EN"
 "http://www.w3.org/TR/2001/REC-SVG-20010904/DTD/svg10.dtd">
<svg version="1.0" xmlns="http://www.w3.org/2000/svg"
 width="800.000000pt" height="800.000000pt" viewBox="0 0 800.000000 800.000000"
 preserveAspectRatio="xMidYMid meet">

<g transform="translate(0.000000,800.000000) scale(0.100000,-0.100000)"
fill="#fff" stroke="none">
<path d="M3750 7994 c-840 -61 -1607 -359 -2260 -880 -173 -138 -466 -431
-604 -604 -482 -604 -767 -1288 -863 -2070 -24 -204 -24 -676 0 -880 96 -782
381 -1466 863 -2070 138 -173 431 -466 604 -604 604 -482 1288 -767 2070 -863
204 -24 676 -24 880 0 782 96 1466 381 2070 863 173 138 466 431 604 604 482
604 767 1288 863 2070 24 204 24 676 0 880 -96 782 -381 1466 -863 2070 -138
173 -431 466 -604 604 -601 479 -1293 769 -2060 861 -129 16 -577 28 -700 19z
m650 -119 c1156 -137 2183 -751 2809 -1680 368 -545 586 -1136 667 -1805 24
-199 24 -581 0 -780 -142 -1174 -749 -2191 -1681 -2819 -545 -368 -1136 -586
-1805 -667 -199 -24 -581 -24 -780 0 -1174 142 -2191 749 -2819 1681 -368 545
-586 1136 -667 1805 -24 199 -24 581 0 780 111 917 502 1737 1125 2361 668
667 1570 1072 2551 1143 109 8 468 -4 600 -19z"/>
<path d="M3896 7503 c-17 -5 -17 -7 7 -27 l27 -21 2 -190 c2 -104 -1 -200 -5
-213 -5 -13 -23 -32 -40 -43 l-32 -19 97 0 c133 0 136 -18 3 -22 -101 -3 -106
-2 -141 24 -20 15 -42 25 -48 21 -6 -3 -8 -3 -4 2 5 5 -12 46 -37 93 -25 46
-45 86 -45 88 0 2 20 4 45 4 l44 0 -31 50 c-35 56 -52 61 -19 5 11 -20 21 -38
21 -41 0 -2 -18 -4 -41 -4 -22 0 -39 -3 -37 -7 2 -5 22 -45 46 -90 44 -86 48
-98 33 -88 -10 6 -101 173 -101 185 0 4 16 11 35 14 l35 7 -21 40 c-19 39 -21
40 -39 24 -17 -15 -20 -12 -59 56 -36 62 -40 74 -28 88 28 32 30 45 4 22 -15
-14 -27 -30 -27 -37 0 -6 18 -42 40 -80 21 -37 37 -71 34 -76 -5 -8 -104 144
-104 159 0 4 7 15 17 25 9 10 14 21 10 24 -5 5 -128 -9 -186 -22 l-24 -5 24
-16 c13 -9 26 -18 27 -19 2 -1 -4 -39 -13 -83 -16 -72 -20 -79 -36 -71 -10 6
-24 10 -31 10 -7 -1 -1 -8 15 -16 37 -20 35 -39 -2 -19 -32 16 -35 14 -45 -27
-6 -24 -3 -28 16 -28 43 0 46 -10 31 -84 -16 -79 -34 -119 -72 -160 l-26 -29
25 6 c14 3 54 11 90 18 36 6 70 16 76 21 7 5 16 3 23 -6 16 -19 12 -20 -99
-42 -52 -10 -87 -20 -78 -22 9 -2 50 4 92 12 41 9 84 16 96 16 26 0 26 4 -10
48 -32 40 -45 100 -33 145 l8 28 41 -35 41 -35 31 45 c17 24 35 44 39 44 5 0
24 -29 44 -64 l37 -64 -27 -27 -26 -27 30 6 c63 11 184 18 196 10 20 -12 -17
-22 -86 -24 -33 -1 -71 -6 -85 -10 -14 -5 29 -5 95 -2 66 4 172 7 237 7 106 0
115 1 107 17 -5 9 -16 21 -23 25 -36 20 -46 65 -46 208 1 167 -4 170 110 -56
44 -86 87 -159 96 -163 8 -3 26 -6 38 -6 21 0 23 6 43 203 11 111 27 215 34
231 8 17 29 36 53 47 l39 17 -59 6 c-32 4 -81 9 -108 12 l-49 5 33 -31 33 -31
-7 -102 c-4 -56 -10 -120 -13 -141 l-6 -40 -74 148 c-70 139 -73 149 -56 162
10 7 22 14 27 14 5 0 7 3 4 6 -6 5 -68 -22 -68 -30 0 -2 21 -41 46 -87 50 -90
124 -245 124 -260 0 -25 -20 -3 -40 44 -12 28 -54 110 -92 181 -66 121 -69
130 -52 143 10 7 23 14 28 14 6 1 -7 5 -29 10 -43 8 -138 10 -169 2z m118
-468 l18 -30 -23 23 c-23 22 -24 27 -25 200 l-1 177 6 -170 c5 -143 9 -176 25
-200z m-593 247 l-19 -72 44 -32 c24 -17 41 -35 38 -39 -6 -11 -27 1 -73 39
l-34 29 18 74 c20 85 24 94 36 82 4 -4 0 -41 -10 -81z m84 -35 c26 -46 27 -49
10 -67 -23 -25 -23 -25 -63 9 -33 28 -33 30 -22 72 19 74 19 75 34 53 7 -10
25 -41 41 -67z m-122 -172 c-5 -50 -2 -70 11 -90 22 -34 3 -32 -24 3 -19 24
-21 35 -15 87 7 64 12 78 25 70 4 -2 5 -34 3 -70z"/>
<path d="M4380 7437 c-14 -7 -30 -24 -37 -38 -7 -14 -22 -118 -34 -232 l-22
-206 -46 -3 -46 -3 48 -9 c26 -5 50 -7 52 -5 2 2 15 105 29 228 26 226 36 261
72 261 7 0 16 5 19 10 8 13 -5 12 -35 -3z"/>
<path d="M2896 7352 l-90 -26 40 -17 40 -17 68 -196 67 -196 -21 -29 -20 -30
67 20 c98 29 120 32 127 21 3 -5 -31 -20 -77 -32 -45 -13 -86 -27 -92 -33 -7
-6 -1 -7 15 -3 14 4 62 17 108 29 45 12 82 24 82 28 0 3 -18 15 -40 28 -43 24
-41 19 -128 316 l-30 100 21 29 c11 16 15 27 8 25 -7 -3 -20 -16 -29 -31 -15
-25 -13 -35 42 -218 32 -105 56 -193 53 -196 -3 -3 -19 41 -37 98 -17 57 -45
147 -62 200 l-30 97 22 30 c20 29 20 31 3 30 -10 0 -58 -12 -107 -27z"/>
<path d="M4957 7351 c17 -28 16 -29 -32 -90 -26 -33 -51 -61 -55 -61 -4 0 -13
7 -20 15 -7 9 -15 13 -18 10 -3 -3 3 -13 12 -24 10 -11 13 -22 8 -25 -6 -3
-17 6 -27 20 l-17 26 -29 -28 -29 -27 30 -19 c25 -15 29 -21 21 -37 -24 -43
-115 -131 -159 -152 l-47 -23 95 -22 c52 -12 98 -20 101 -18 4 2 9 -5 12 -16
3 -11 4 -20 4 -20 -145 38 -213 51 -196 37 2 -2 50 -15 107 -28 109 -27 110
-26 91 30 -14 40 -1 92 35 136 l24 29 18 -51 18 -52 31 19 c43 27 85 41 85 30
0 -5 -23 -21 -51 -36 -28 -14 -49 -27 -47 -30 3 -2 26 7 51 22 l47 26 0 -45
c0 -25 3 -52 6 -60 3 -10 -7 -19 -32 -29 l-36 -15 90 -31 c50 -18 95 -32 100
-32 8 0 22 -22 22 -35 0 -2 -43 12 -96 31 -53 19 -99 32 -102 30 -3 -3 1 -8 9
-10 8 -3 57 -21 109 -40 51 -20 96 -34 98 -32 2 2 -5 21 -16 43 -13 26 -21 70
-26 141 -3 56 -4 102 -1 102 2 0 20 -8 40 -17 19 -9 36 -15 38 -12 2 2 1 29
-3 59 l-7 55 -2 -49 c-1 -42 -3 -47 -18 -41 -10 4 -28 10 -41 13 l-23 5 3
-107 c2 -87 1 -103 -9 -89 -9 11 -13 52 -13 116 l0 99 40 -7 40 -7 0 42 c0 40
-1 42 -25 36 -24 -6 -25 -4 -25 36 0 24 -3 59 -6 80 -6 33 -4 38 26 53 17 9
30 19 27 21 -3 3 -20 -2 -37 -11 l-33 -17 6 -84 c3 -46 2 -84 -2 -84 -12 0
-21 53 -21 126 0 59 2 64 28 78 20 11 23 16 12 20 -31 11 -186 56 -193 56 -3
0 1 -13 10 -29z m43 -92 c0 -6 -23 -37 -50 -69 l-51 -58 21 -34 c20 -33 27
-68 13 -67 -5 0 -19 24 -33 53 l-26 54 56 66 c54 64 70 77 70 55z m9 -136 c1
-42 -3 -54 -18 -63 -30 -16 -36 -13 -55 30 l-17 40 38 46 c36 45 38 46 44 23
4 -13 7 -47 8 -76z m-159 -43 c0 -5 -13 -31 -30 -57 -19 -29 -30 -60 -30 -82
0 -27 -3 -32 -12 -23 -21 21 -12 70 23 122 32 48 49 61 49 40z"/>
<path d="M2505 7209 c-22 -5 -87 -32 -145 -60 l-105 -51 34 -12 c30 -11 45
-32 138 -200 101 -181 104 -188 89 -211 -9 -13 -16 -27 -16 -30 0 -3 59 24
130 60 135 69 166 96 189 164 16 50 14 92 -10 166 -49 147 -155 208 -304 174z
m117 -75 c26 -17 47 -44 73 -97 65 -131 56 -235 -23 -280 -18 -11 -34 -18 -36
-16 -14 18 -186 363 -182 366 2 3 31 13 63 23 46 15 52 19 28 19 -16 0 -49 -8
-73 -19 l-42 -19 92 -183 c104 -206 105 -207 90 -193 -20 19 -203 379 -198
390 6 17 106 44 141 38 17 -2 47 -16 67 -29z"/>
<path d="M2727 7200 c75 -45 141 -194 130 -290 -12 -102 -59 -151 -216 -226
-62 -30 -111 -57 -109 -60 3 -2 49 16 103 41 194 90 241 147 233 283 -7 117
-59 221 -130 258 -40 21 -48 17 -11 -6z"/>
<path d="M5479 7168 l20 -31 -79 -157 c-91 -181 -117 -217 -166 -226 l-36 -7
84 -37 c49 -21 84 -43 86 -53 3 -13 -16 -7 -83 24 -48 22 -89 39 -92 36 -2 -3
39 -26 93 -51 53 -25 98 -45 100 -43 2 1 -3 22 -9 45 -7 24 -16 40 -19 36 -4
-3 -10 6 -14 21 -5 21 10 59 72 186 43 88 80 156 82 150 2 -5 -28 -72 -67
-148 -38 -76 -73 -151 -77 -168 -3 -16 27 35 67 115 l74 145 7 -60 c4 -33 7
-124 6 -203 l-1 -143 31 -19 31 -19 111 168 c61 92 122 179 135 191 15 14 43
26 68 29 l42 6 -81 48 c-90 52 -99 56 -84 28 21 -40 10 -75 -61 -188 -39 -62
-71 -113 -72 -113 -1 0 -1 75 0 167 l2 168 33 6 c32 6 32 6 -9 8 l-42 1 0
-191 c1 -124 -3 -195 -10 -202 -8 -8 -11 45 -12 186 -1 108 -2 203 -3 210 -1
7 15 14 39 17 l39 5 -106 48 c-58 26 -109 47 -112 47 -3 0 3 -14 13 -32z"/>
<path d="M3534 7090 c-15 -22 -25 -42 -23 -44 2 -2 16 16 31 40 34 55 28 58
-8 4z"/>
<path d="M2190 6933 c29 -33 32 -41 28 -88 -3 -31 -13 -64 -26 -82 -25 -36
-25 -37 63 -81 69 -34 156 -62 196 -62 l28 0 -49 -66 c-45 -59 -59 -84 -45
-84 2 0 12 14 21 31 8 17 34 51 56 75 39 42 39 43 16 48 -111 22 -142 30 -198
57 -94 44 -93 43 -64 97 33 61 29 120 -12 163 -40 42 -52 36 -14 -8z"/>
<path d="M1987 6936 c-74 -31 -157 -94 -207 -157 -46 -59 -49 -68 -16 -62 19
4 34 -8 85 -68 33 -40 61 -76 61 -80 0 -4 -8 -14 -19 -21 -14 -10 -16 -18 -10
-37 l9 -23 21 26 c27 34 46 23 23 -12 l-17 -27 22 20 22 19 40 -44 c33 -38 39
-51 36 -82 -1 -21 -1 -38 0 -38 1 0 35 24 75 53 l72 52 -36 5 c-31 4 -45 16
-89 74 l-53 68 42 39 c39 37 62 48 62 31 0 -5 -13 -21 -30 -37 -16 -16 -30
-34 -30 -39 1 -6 21 -36 45 -66 38 -46 52 -57 91 -65 l46 -10 -81 -55 c-44
-30 -81 -59 -81 -63 0 -10 5 -7 108 64 88 61 88 61 10 75 -30 5 -45 17 -78 60
-22 29 -40 57 -40 61 1 4 12 21 25 38 l25 30 34 -19 c19 -10 73 -51 120 -92
47 -41 86 -70 86 -65 0 5 16 33 35 61 20 29 34 54 33 55 -2 1 -27 7 -57 13
-30 7 -97 33 -149 57 l-93 44 32 40 c44 56 52 125 17 166 -35 40 -111 45 -191
11z m92 -65 c34 -31 41 -74 19 -114 -15 -29 -70 -97 -77 -97 -9 0 -111 138
-111 150 0 14 57 48 105 61 22 7 34 14 27 16 -19 7 -98 -25 -132 -53 l-29 -25
61 -80 c41 -53 58 -83 52 -89 -7 -7 -33 18 -77 74 -37 46 -67 89 -67 95 0 13
57 56 100 75 55 24 94 20 129 -13z"/>
<path d="M5838 6903 c-14 -16 -76 -103 -137 -195 -61 -93 -114 -168 -117 -168
-3 0 -19 7 -35 16 -17 8 -33 13 -36 10 -3 -2 14 -14 37 -26 23 -12 43 -20 45
-18 1 2 59 87 129 191 70 103 136 192 146 197 11 6 32 8 47 4 22 -4 25 -3 13
5 -27 19 -65 12 -92 -16z"/>
<path d="M5955 6791 c-89 -40 -155 -143 -155 -242 0 -70 36 -146 88 -186 98
-74 212 -176 212 -189 0 -19 -14 -18 -31 3 -25 30 -249 213 -249 204 0 -8 126
-119 261 -230 l29 -24 0 49 c0 48 2 52 68 117 56 56 73 67 102 68 29 0 31 2
15 9 -39 17 -53 9 -123 -62 -39 -40 -73 -70 -76 -68 -2 3 27 38 65 77 65 66
74 72 116 75 l46 3 -114 94 c-116 96 -152 128 -134 118 17 -9 36 8 29 26 -7
19 -47 33 -63 22 -6 -3 -11 -17 -11 -30 0 -18 18 -39 69 -79 73 -58 87 -73 77
-83 -7 -8 -110 71 -141 109 -14 16 -25 23 -25 16 0 -15 41 -56 108 -107 l42
-33 -67 -72 c-36 -39 -70 -72 -75 -74 -13 -6 -97 71 -120 108 -73 122 67 340
218 340 62 0 141 -51 166 -106 19 -45 19 -52 -7 -116 -6 -14 4 -13 76 8 93 27
98 30 71 38 -10 4 -54 44 -96 90 -98 108 -167 146 -265 146 -42 0 -80 -7 -106
-19z"/>
<path d="M6039 6701 c-79 -49 -150 -165 -148 -238 l1 -38 8 46 c10 56 21 79
72 144 49 61 94 94 139 101 50 8 118 -30 146 -81 13 -22 23 -33 23 -24 0 27
-43 81 -80 100 -51 28 -108 24 -161 -10z"/>
<path d="M4315 6658 c-2 -7 -9 -33 -15 -57 -6 -24 -23 -62 -36 -83 -24 -38
-26 -39 -47 -24 -168 119 -476 95 -726 -57 -50 -30 -66 -36 -73 -25 -23 34
-51 96 -65 140 -14 49 -36 69 -54 51 -20 -20 -41 -205 -35 -306 5 -75 3 -106
-9 -134 -23 -55 -44 -212 -35 -261 8 -48 6 -52 -30 -52 -15 0 -40 -10 -55 -22
-27 -21 -28 -21 -99 -4 -40 9 -103 21 -142 26 -38 4 -113 14 -167 21 -79 10
-131 10 -260 1 -89 -7 -268 -12 -397 -12 l-235 0 -35 -29 c-19 -15 -46 -32
-60 -36 -59 -18 -210 -103 -210 -118 0 -3 71 -8 158 -11 247 -8 232 -5 251
-51 24 -60 31 -67 56 -61 32 8 37 -3 15 -31 -16 -20 -17 -28 -7 -44 6 -10 20
-19 29 -19 22 0 22 -4 2 -35 -14 -22 -14 -24 6 -35 l21 -11 -22 -30 c-18 -26
-21 -40 -16 -85 3 -29 2 -56 -3 -59 -5 -3 -11 -18 -15 -33 -4 -15 -30 -46 -58
-71 -49 -42 -147 -163 -147 -182 0 -12 33 -11 46 0 5 5 49 33 99 61 73 42 95
50 120 46 24 -5 39 -1 59 15 26 21 28 21 47 3 17 -15 23 -16 41 -5 16 10 22
10 28 1 4 -7 16 -9 28 -6 18 6 20 3 15 -26 -3 -18 -6 -34 -8 -36 -2 -2 -33 -7
-70 -13 -83 -12 -212 -73 -283 -135 -28 -25 -67 -71 -87 -104 -20 -33 -39 -60
-41 -60 -9 0 -60 34 -86 59 -15 13 -30 22 -33 19 -18 -18 1 -170 36 -290 16
-57 33 -114 37 -128 9 -30 33 -73 90 -157 41 -62 46 -83 18 -83 -28 0 -126
-50 -140 -72 -31 -48 -50 -201 -32 -253 10 -28 -40 -102 -73 -110 -64 -16 -89
-56 -55 -89 12 -12 36 -16 102 -16 l87 1 80 64 c44 36 84 65 89 65 4 0 -7 -19
-26 -42 -82 -102 -121 -189 -158 -350 -18 -82 -21 -119 -17 -230 2 -73 12
-163 20 -200 30 -121 116 -263 244 -398 117 -125 215 -163 413 -161 147 1 255
37 366 122 l67 52 161 -21 c283 -38 256 -38 301 -2 39 31 42 32 108 25 37 -3
93 -13 124 -21 31 -8 83 -19 117 -24 109 -17 440 -79 471 -88 17 -5 64 -27
105 -48 69 -35 81 -38 155 -37 61 1 97 7 150 28 39 14 89 32 111 40 75 24 192
87 251 135 32 26 79 56 104 68 l46 20 18 -57 c45 -144 136 -283 279 -427 92
-92 131 -119 231 -157 115 -44 174 -57 292 -64 210 -11 364 39 522 171 122
101 197 204 252 344 16 43 34 86 39 97 22 48 53 206 59 309 10 175 -29 364
-99 478 -17 27 -28 53 -25 57 2 5 20 12 40 15 46 9 50 19 22 63 -62 98 -296
288 -441 358 -126 61 -203 83 -331 96 -60 6 -112 13 -114 15 -6 6 -60 208 -61
228 0 18 1 18 20 1 11 -10 41 -20 67 -22 42 -4 54 -1 90 26 31 22 44 40 49 66
11 58 -4 105 -46 147 -51 51 -89 51 -154 2 -38 -29 -50 -33 -62 -23 -12 10 -7
19 31 60 62 66 87 126 93 224 4 73 2 86 -26 145 -16 36 -44 79 -61 95 -32 30
-33 30 -135 27 l-103 -2 -17 45 c-20 50 -15 65 18 65 23 0 61 32 50 42 -3 4
-7 17 -8 30 -12 94 -33 188 -49 216 -13 22 -40 44 -81 64 -59 30 -64 30 -151
24 -178 -13 -211 -17 -310 -41 -55 -13 -136 -29 -180 -34 -71 -9 -226 -38
-299 -57 -26 -6 -26 -5 -26 50 0 96 76 272 153 354 17 17 26 32 20 32 -11 0
-55 -46 -85 -90 -9 -14 -17 -20 -17 -13 -1 14 87 123 99 123 5 0 12 -5 15 -10
4 -7 25 -9 53 -5 66 9 83 15 77 26 -4 5 4 13 17 18 20 8 21 10 6 16 -15 6 -26
35 -14 35 17 0 97 -42 124 -65 18 -15 36 -25 39 -21 9 8 -19 29 -97 70 -37 19
-74 44 -84 55 -10 11 -34 23 -52 27 -38 7 -60 44 -70 118 -4 26 -11 49 -15 52
-5 3 -9 29 -9 58 0 73 -10 116 -26 116 -16 0 -18 -12 -4 -26 10 -10 15 -39 25
-149 4 -38 13 -85 21 -104 17 -41 17 -41 -1 -41 -8 0 -15 6 -15 14 0 8 -5 18
-11 22 -8 4 -9 -1 -4 -16 7 -22 5 -22 -31 -15 -22 4 -39 8 -39 8 0 1 -5 12
-12 23 -8 16 -9 24 0 33 6 6 13 52 15 102 4 81 2 94 -17 120 -23 31 -20 51 7
47 9 -2 17 2 17 7 1 14 38 75 46 75 3 0 16 9 29 20 14 12 27 17 34 11 7 -5 19
2 34 20 19 24 21 29 7 29 -30 0 -78 -32 -151 -101 -83 -79 -104 -86 -104 -35
0 19 -2 41 -6 49 -5 13 57 70 171 160 48 38 122 77 144 77 18 0 21 -6 21 -47
0 -32 -7 -58 -23 -82 -42 -64 -127 -202 -127 -206 0 -24 51 36 69 80 2 6 19
36 39 67 35 58 74 85 235 166 15 7 25 18 22 23 -3 5 -68 7 -143 6 -159 -3
-164 -5 -316 -127 -49 -39 -94 -69 -101 -66 -21 7 -28 81 -15 138 18 72 8 233
-16 259 -20 22 -33 24 -39 7z m39 -105 c4 -38 2 -90 -3 -118 -5 -27 -9 -44
-10 -37 0 6 -7 12 -14 12 -7 0 -18 9 -25 20 -10 17 -9 25 4 45 20 30 5 33 -21
5 -30 -33 -28 -15 4 36 17 26 34 62 37 81 9 50 21 31 28 -44z m-1014 -28 c22
-70 57 -129 104 -175 25 -24 46 -53 46 -64 0 -18 -1 -19 -20 -1 -11 10 -23 15
-28 11 -4 -4 6 -18 21 -30 20 -16 30 -35 34 -61 l5 -39 -26 17 c-30 20 -35 8
-7 -17 19 -17 20 -17 35 6 8 12 14 32 12 43 -2 11 1 30 7 42 7 17 5 30 -12 58
-18 30 -19 37 -6 41 19 8 45 -13 45 -34 0 -12 3 -13 11 -5 27 27 -27 70 -63
52 -9 -5 -24 -6 -32 -3 -18 7 -22 34 -4 34 6 0 32 14 58 30 52 33 170 79 271
105 181 47 404 -12 496 -132 44 -58 80 -145 53 -128 -15 9 -36 -6 -69 -52 -23
-32 -35 -40 -50 -36 -18 5 -21 1 -21 -29 0 -19 4 -38 10 -44 6 -6 4 -24 -5
-49 -15 -43 -18 -87 -9 -122 9 -33 24 -17 17 17 -3 19 -1 30 6 30 6 0 11 -6
11 -14 0 -8 13 -28 29 -45 34 -37 57 -33 76 13 l13 31 7 -28 c8 -29 0 -74 -17
-94 -12 -15 -51 -8 -86 15 -12 8 -25 12 -28 10 -8 -9 47 -39 82 -45 31 -5 39
-1 75 36 l39 42 24 -53 c53 -122 60 -266 17 -380 -52 -135 -257 -255 -455
-266 -159 -8 -368 55 -465 142 -43 38 -81 107 -81 148 0 29 -3 36 -15 32 -9
-4 -15 -19 -15 -37 0 -31 -33 -77 -56 -77 -7 0 -31 16 -54 35 -23 19 -51 35
-62 35 -35 0 -87 40 -114 87 -19 32 -28 63 -32 112 -6 89 12 126 68 141 37 10
46 8 110 -26 65 -34 103 -67 130 -112 8 -15 11 -15 20 -2 13 20 13 30 -1 30
-6 0 -32 19 -57 41 -26 23 -66 51 -89 62 -31 15 -44 28 -49 49 -11 52 19 288
37 288 12 0 29 -35 29 -62 0 -13 7 -34 16 -46 15 -22 44 -30 44 -12 0 6 -6 10
-14 10 -14 0 -28 26 -23 44 1 6 21 10 44 11 42 1 69 14 45 22 -7 3 -26 16 -42
30 -29 24 -42 20 -17 -6 10 -10 7 -12 -13 -9 -34 4 -53 47 -59 138 -8 107 12
312 29 293 4 -4 13 -26 20 -48z m1568 -97 c-3 -7 -15 -15 -29 -19 -13 -3 -48
-20 -76 -37 -39 -23 -53 -28 -53 -17 0 8 14 22 31 30 17 9 28 19 25 22 -3 3
-17 -2 -30 -11 -14 -8 -27 -12 -30 -7 -11 17 28 36 88 42 34 3 65 7 69 7 5 1
7 -3 5 -10z m-538 -269 l0 -61 -22 16 c-23 16 -34 21 -64 31 -24 8 31 75 62
75 23 0 24 -3 24 -61z m-46 -50 c33 -26 44 -46 62 -115 17 -68 17 -76 1 -99
-13 -16 -14 -15 -9 14 2 17 -1 45 -8 61 -10 25 -17 29 -36 24 -28 -7 -33 16
-8 37 14 12 14 14 -2 26 -21 16 -58 17 -85 3 -26 -15 -26 9 2 44 25 31 47 33
83 5z m135 -35 c16 -21 21 -41 21 -90 0 -63 -6 -94 -19 -94 -17 0 -53 95 -58
151 -5 55 -4 59 15 59 11 0 30 -12 41 -26z m-1689 -223 c25 -6 72 -12 105 -15
33 -3 95 -14 138 -23 l77 -17 -6 -57 c-14 -120 56 -242 153 -268 22 -6 47 -18
54 -27 7 -8 30 -24 51 -35 28 -15 38 -26 38 -44 0 -14 9 -48 20 -77 11 -29 16
-55 12 -58 -5 -3 -8 -15 -8 -27 0 -22 1 -22 28 4 21 20 38 26 72 27 59 1 81
-19 47 -42 -13 -10 -43 -35 -67 -57 -46 -44 -73 -114 -77 -199 -1 -25 -5 -46
-8 -46 -12 0 -39 73 -34 91 4 11 2 19 -4 19 -6 0 -11 -9 -11 -21 0 -79 -101
103 -120 218 -6 32 -15 76 -20 98 -5 22 -11 52 -14 67 -9 40 -54 88 -82 88
-49 0 -150 -82 -237 -192 -34 -42 -127 -192 -127 -203 0 -3 -25 -49 -56 -103
-31 -53 -74 -132 -96 -174 -41 -81 -67 -108 -106 -108 -26 0 -63 17 -74 34
-11 16 -10 64 2 71 6 4 28 30 49 58 22 29 88 106 147 172 135 152 263 321 304
404 30 59 69 164 70 185 0 23 -172 -34 -306 -102 -34 -17 -130 -76 -212 -131
-116 -77 -176 -126 -261 -211 -66 -66 -117 -110 -129 -110 -27 0 -72 55 -72
87 0 48 36 90 96 112 30 12 58 21 61 21 19 0 229 106 373 189 91 52 191 109
223 127 31 18 58 33 60 32 9 -4 88 46 96 60 19 36 -2 47 -151 84 -80 20 -119
23 -278 23 -235 -1 -413 -29 -552 -89 -55 -24 -85 -20 -119 13 -34 34 -39 87
-11 120 16 19 29 20 307 25 160 2 315 8 345 13 64 11 245 7 310 -6z m-1000
-71 c0 -6 -11 -15 -25 -20 -14 -5 -25 -14 -25 -20 0 -7 7 -7 21 0 11 7 22 10
24 8 11 -14 25 -51 21 -56 -4 -3 -56 -8 -118 -10 -82 -4 -109 -2 -104 7 9 13
175 100 194 100 6 1 12 -4 12 -9z m2884 -23 c60 -15 73 -33 60 -84 l-9 -38
-95 1 -95 1 -6 64 c-4 35 -4 68 -2 73 6 9 74 2 147 -17z m-2166 -12 c46 -1 78
-7 80 -14 2 -6 10 -11 18 -11 8 0 11 6 7 17 -5 13 -2 15 11 10 10 -4 29 -7 42
-7 28 0 33 -17 7 -23 -10 -2 10 -2 45 0 34 1 62 1 62 -2 0 -2 -12 -11 -27 -20
l-28 -16 33 4 c24 3 32 -1 33 -12 1 -13 2 -12 6 2 6 21 17 22 33 2 9 -11 16
-13 24 -5 14 14 26 13 26 -3 0 -7 -31 -30 -70 -50 -38 -21 -72 -42 -75 -48
-10 -15 -35 -11 -29 5 3 8 -2 27 -10 43 l-16 28 1 -25 c3 -52 0 -62 -17 -56
-13 5 -15 1 -12 -18 4 -21 -6 -29 -84 -74 -52 -29 -91 -46 -94 -40 -4 6 -10 5
-15 -3 -6 -10 -9 -8 -9 9 0 33 -18 17 -26 -22 -5 -31 -13 -37 -95 -74 l-89
-41 6 38 c3 22 1 47 -5 57 -8 16 -10 11 -11 -27 0 -60 -22 -87 -85 -104 -28
-7 -58 -16 -69 -21 -17 -6 -18 -3 -11 47 4 30 9 57 12 62 8 14 22 7 26 -15 4
-20 4 -19 6 4 1 18 -6 32 -19 40 -21 14 -27 43 -10 53 20 12 10 35 -15 35 -35
0 -42 26 -15 55 27 28 19 45 -21 45 -25 0 -32 7 -50 46 -13 26 -18 49 -13 53
12 11 103 41 124 41 10 0 29 -12 44 -26 28 -29 36 -22 9 8 -23 25 -8 36 18 12
21 -19 21 -19 18 0 -3 16 5 21 49 31 59 14 59 13 92 -42 11 -18 25 -33 30 -33
12 0 8 8 -22 52 l-18 26 52 9 c29 5 57 7 61 5 5 -2 43 -5 85 -7z m472 -192 c0
-12 -36 -103 -59 -150 -24 -48 -187 -268 -221 -298 -16 -14 -24 -16 -27 -7 -9
24 -25 12 -20 -15 4 -21 -4 -35 -39 -72 -32 -34 -44 -41 -44 -28 0 10 -4 15
-10 12 -5 -3 -10 -18 -10 -32 0 -24 -29 -71 -69 -111 -9 -9 -25 -30 -35 -45
-9 -16 -22 -27 -28 -25 -6 2 -30 40 -54 83 -37 68 -44 88 -42 131 2 61 -7 81
-29 63 -12 -10 -16 -10 -23 2 -8 11 -13 12 -30 2 -24 -15 -30 -16 -50 -3 -12
8 -2 23 55 80 38 38 78 70 88 70 10 0 16 4 12 9 -6 10 47 56 130 113 89 61
126 79 147 72 12 -3 18 -2 15 3 -3 5 7 17 24 27 16 9 29 15 29 11 0 -3 13 1
29 9 26 14 30 14 41 1 7 -8 17 -15 22 -15 6 0 5 7 -2 15 -7 9 -11 17 -9 19 14
12 71 36 88 36 10 0 21 4 23 8 3 7 72 39 91 41 4 1 7 -2 7 -6z m490 -134 c0
-14 72 -83 128 -121 66 -46 51 -83 -22 -53 -26 11 -51 14 -81 10 l-43 -7 -15
49 c-28 89 -29 104 -10 119 22 16 43 18 43 3z m-295 -22 c8 -13 18 -37 21 -54
5 -25 3 -32 -12 -36 -17 -3 -16 -5 6 -14 20 -8 26 -20 35 -77 12 -71 12 -70
-30 -55 -5 2 -11 0 -12 -6 -2 -5 11 -15 28 -20 27 -9 67 -60 69 -87 0 -4 -28
-6 -62 -4 -35 2 -76 -1 -91 -7 -23 -8 -31 -6 -41 9 -13 17 -15 16 -30 -14 -9
-18 -24 -32 -34 -32 -9 0 -27 -3 -39 -6 -21 -6 -23 -3 -23 30 0 43 -13 47 -29
9 -7 -16 -29 -47 -49 -69 -43 -49 -231 -198 -239 -190 -3 2 15 38 39 78 24 40
52 91 62 113 23 49 53 84 85 96 13 5 21 12 18 15 -3 3 -15 1 -26 -6 -27 -14
-27 -13 12 61 33 65 125 164 165 180 13 5 21 13 18 18 -6 9 63 61 81 61 6 0
16 7 23 15 18 21 37 19 55 -8z m1265 -88 c-11 -35 -20 -83 -20 -107 0 -37 -3
-44 -27 -53 -16 -6 -76 -13 -135 -16 -86 -5 -120 -2 -172 13 -61 17 -84 33
-53 35 6 0 28 2 47 3 19 2 45 8 57 14 30 16 36 15 29 -5 -5 -14 -2 -13 11 3
10 12 34 27 53 33 50 17 161 86 195 121 16 16 30 28 31 27 2 -2 -5 -32 -16
-68z m925 -43 c39 -16 40 -19 25 -47 -14 -25 7 -26 25 -2 13 17 14 17 33 0 10
-9 24 -34 30 -55 15 -53 25 -142 16 -142 -4 0 -27 21 -50 47 -43 47 -43 47
-116 51 -53 2 -69 0 -58 -7 13 -9 11 -12 -7 -17 -20 -5 -23 -13 -23 -54 0 -30
6 -52 15 -60 26 -22 16 -30 -36 -30 -46 0 -54 4 -94 44 -24 24 -46 54 -50 65
-10 32 -28 25 -20 -8 6 -27 4 -29 -42 -40 -26 -7 -53 -17 -59 -21 -6 -6 -23 6
-46 33 -20 24 -64 58 -99 77 -59 32 -71 35 -151 35 -119 1 -132 17 -31 39 43
9 116 21 163 27 47 5 114 18 150 29 36 10 89 21 119 25 47 6 53 5 48 -9 -8
-20 2 -20 31 0 46 32 171 43 227 20z m-1704 -82 c23 -20 167 -74 199 -74 l25
1 -25 14 c-24 14 -23 14 27 15 28 0 64 -5 79 -11 82 -31 347 -31 455 -1 95 28
114 28 64 1 -21 -12 -68 -25 -103 -30 -100 -14 -144 -38 -199 -109 l-48 -62
-6 28 c-3 16 -13 45 -22 64 l-15 35 5 -67 c4 -47 2 -72 -7 -83 -10 -12 -93
-55 -106 -55 -2 0 -5 19 -6 43 l-1 42 -4 -42 c-4 -41 -5 -42 -90 -88 -47 -25
-87 -44 -88 -43 0 2 -14 37 -30 78 -15 41 -34 84 -41 94 -9 14 -11 37 -7 79 5
45 3 58 -5 53 -7 -4 -10 -17 -6 -31 8 -34 -11 -39 -41 -9 -34 34 -45 23 -11
-12 31 -34 81 -135 102 -204 l15 -51 -31 -25 c-16 -14 -30 -31 -30 -37 0 -6 9
-1 20 11 12 12 26 22 32 22 6 0 2 -10 -10 -23 -22 -23 -29 -47 -14 -47 4 1 22
21 40 45 26 36 51 54 125 89 51 24 115 51 144 60 49 16 53 16 78 0 31 -20 55
-63 55 -99 0 -14 5 -25 10 -25 29 0 -4 90 -46 125 l-24 21 82 86 c86 89 134
116 183 104 17 -4 41 3 78 24 30 16 62 30 73 29 10 0 13 -3 7 -6 -19 -7 -15
-24 5 -21 13 2 18 -5 20 -29 3 -29 -2 -35 -47 -65 -28 -18 -53 -39 -56 -46 -2
-7 -1 -11 3 -8 11 7 85 -15 93 -27 12 -17 -3 -47 -32 -68 -32 -22 -38 -39 -13
-39 11 0 14 -9 12 -36 -3 -40 -32 -69 -46 -46 -6 9 -16 3 -38 -19 -37 -40
-101 -68 -169 -73 -42 -4 -66 -14 -114 -46 -54 -37 -169 -90 -195 -90 -5 0
-47 -19 -93 -42 -92 -45 -180 -62 -199 -37 -6 8 -22 43 -36 79 -14 36 -48 100
-76 143 -56 85 -84 152 -103 244 -11 53 -10 69 6 128 20 76 39 101 110 149 59
40 63 41 86 20z m-1668 -94 c-22 -17 -31 -40 -16 -40 3 0 15 8 25 17 14 13 21
14 30 5 8 -8 8 -15 3 -21 -16 -16 -177 -112 -181 -108 -6 6 42 67 98 125 28
29 53 50 57 46 3 -3 -4 -14 -16 -24z m2773 -4 c80 -29 145 -86 126 -109 -10
-11 -9 -17 2 -27 9 -6 19 -9 24 -6 5 3 14 -6 21 -21 10 -22 10 -25 -5 -19 -8
3 -34 9 -57 13 -30 4 -53 17 -81 45 -52 52 -89 70 -147 72 -44 1 -48 3 -53 30
-3 15 -3 32 0 37 10 17 104 9 170 -15z m632 -28 c16 -16 15 -31 -1 -25 -8 3
-20 1 -27 -3 -10 -6 -6 -16 17 -39 19 -19 39 -56 53 -97 22 -70 21 -94 -5 -94
-15 0 -28 24 -55 98 -15 39 -33 43 -24 5 6 -27 5 -26 -16 6 -12 19 -28 40 -36
49 -11 11 -12 17 -3 28 7 8 9 18 5 21 -4 4 -12 1 -17 -7 -8 -12 -10 -9 -6 12
2 15 0 25 -4 22 -13 -8 -11 10 3 24 16 16 100 16 116 0z m-2108 -40 c5 -7 19
-25 31 -40 11 -16 26 -28 32 -28 7 0 24 -21 39 -46 27 -44 27 -46 12 -77 -41
-82 -91 -123 -244 -204 -165 -87 -281 -84 -394 9 -35 29 -96 111 -96 129 0 4
49 46 109 94 61 47 123 103 140 123 28 34 30 35 31 13 0 -17 4 -22 16 -17 9 3
28 9 42 12 15 3 36 9 47 14 52 22 85 28 152 29 46 1 76 -3 83 -11z m2215 -29
c5 -7 -32 -39 -46 -39 -13 0 -19 33 -9 45 11 13 46 9 55 -6z m-761 -12 c15
-10 24 -22 21 -27 -4 -6 -41 -11 -83 -11 l-77 -2 75 -9 c182 -21 218 -27 259
-42 49 -19 157 -96 179 -128 26 -37 3 -30 -50 15 -29 24 -81 59 -116 76 -65
33 -152 55 -152 40 0 -5 9 -9 21 -9 26 0 49 -53 53 -124 2 -28 5 -58 7 -66 3
-12 -7 -14 -60 -12 -87 4 -269 -24 -348 -53 -123 -47 -334 -195 -477 -337 -43
-43 -82 -76 -86 -73 -4 2 -10 21 -13 41 -5 28 0 47 22 87 16 29 34 68 40 88
10 32 19 38 102 72 50 21 111 53 136 72 36 28 55 35 90 35 29 0 68 11 116 34
40 19 84 38 100 41 31 8 67 49 67 76 0 16 47 59 65 59 4 0 36 16 72 36 75 42
70 52 -24 46 -65 -4 -88 -22 -30 -22 30 -1 29 -2 -23 -24 -30 -13 -56 -22 -58
-20 -2 1 3 13 12 26 24 37 8 80 -35 95 -22 7 -29 13 -19 16 8 3 29 10 45 16
43 15 138 8 169 -12z m375 -8 c21 -17 22 -22 10 -30 -7 -5 -21 -9 -29 -9 -8 0
-39 -11 -68 -25 -65 -30 -62 -30 -62 -4 0 11 -4 28 -10 38 -8 16 -3 21 38 34
63 21 92 20 121 -4z m411 -19 c0 -5 -7 -10 -16 -10 -8 0 -12 5 -9 10 3 6 10
10 16 10 5 0 9 -4 9 -10z m-3215 -36 c18 -45 18 -44 -1 -44 -8 0 -12 5 -9 10
3 6 1 10 -4 10 -6 0 -11 6 -11 14 0 10 -9 11 -42 4 -58 -11 -58 -12 -95 -31
-18 -10 -35 -17 -39 -17 -3 1 -12 -7 -20 -17 -11 -15 -15 -15 -23 -4 -5 8 -11
9 -15 3 -3 -6 0 -12 6 -14 8 -3 5 -9 -9 -17 -20 -10 -22 -9 -16 6 6 16 5 16
-10 4 -9 -7 -15 -17 -12 -21 3 -4 -2 -13 -10 -20 -13 -11 -15 -10 -9 6 3 10
-15 -3 -40 -31 -25 -27 -49 -59 -52 -70 -4 -11 -12 -27 -19 -35 -7 -8 -13 -22
-14 -30 0 -8 -2 -24 -4 -35 -2 -11 -7 -42 -11 -70 -4 -27 -10 -63 -13 -79 l-5
-30 -14 25 c-16 29 -12 150 7 206 15 47 61 114 114 166 77 75 227 146 312 147
40 0 44 -3 58 -36z m2995 -4 c14 -26 18 -85 5 -85 -5 0 -9 4 -7 8 1 4 -3 18
-10 30 -14 25 -18 67 -6 67 4 0 12 -9 18 -20z m-3045 -30 c-3 -5 -10 -10 -16
-10 -5 0 -9 5 -9 10 0 6 7 10 16 10 8 0 12 -4 9 -10z m2810 -10 c10 -11 38
-34 63 -50 43 -28 43 -29 19 -35 -19 -5 -38 3 -87 41 -45 34 -58 49 -48 55 20
13 33 11 53 -11z m-2848 4 c-3 -3 -12 -4 -19 -1 -8 3 -5 6 6 6 11 1 17 -2 13
-5z m2903 -4 c0 -5 -4 -10 -10 -10 -5 0 -10 5 -10 10 0 6 5 10 10 10 6 0 10
-4 10 -10z m244 -42 c4 -22 3 -38 -2 -38 -11 0 -20 50 -14 69 6 17 8 12 16
-31z m-1822 -207 c28 -42 62 -104 74 -139 29 -84 40 -94 107 -96 43 -1 69 6
126 33 39 19 73 32 76 29 7 -7 -33 -96 -65 -143 -46 -66 -110 -123 -204 -181
-48 -31 -93 -57 -100 -60 -8 -3 -11 21 -12 78 -1 53 -7 96 -17 118 l-16 35 7
-45 c27 -172 -10 -290 -207 -665 -48 -90 -64 -111 -105 -132 -24 -13 -36 -13
-75 -2 -60 17 -545 262 -593 300 -20 16 -39 29 -41 29 -3 0 -7 -23 -9 -50 -6
-60 -57 -142 -113 -179 -30 -20 -35 -29 -35 -63 0 -45 -16 -82 -31 -72 -6 4
-8 20 -4 40 3 21 2 34 -5 34 -5 0 -10 -8 -10 -19 0 -28 -26 -46 -34 -25 -4 10
-2 22 4 28 5 5 10 17 10 26 0 10 -6 8 -20 -10 -23 -30 -35 -22 -19 13 8 18 21
27 43 30 l31 4 -33 1 c-24 2 -39 -5 -56 -23 -29 -32 -33 -31 -41 4 -5 22 3 46
31 102 32 63 38 86 46 172 15 179 67 300 145 337 24 11 53 20 66 20 13 0 62
-29 113 -68 80 -61 99 -70 194 -96 85 -24 111 -36 136 -62 38 -39 52 -115 28
-151 -16 -25 -19 -83 -4 -83 6 0 10 15 10 34 0 44 17 56 30 22 5 -14 15 -26
21 -26 8 0 8 4 2 13 -16 21 -33 92 -33 140 0 25 11 77 25 115 29 81 32 138 8
172 -40 57 -33 239 11 315 34 57 68 84 176 141 104 55 201 138 232 197 l21 41
29 -79 c16 -43 52 -113 80 -154z m1386 219 c13 0 11 -5 -8 -20 -32 -25 -35
-25 -36 6 -2 19 2 24 13 20 8 -3 22 -6 31 -6z m254 -3 c-12 -5 -26 -5 -36 0
-12 7 -7 9 20 9 30 0 33 -2 16 -9z m-2803 -44 c21 -25 23 -33 18 -95 -3 -37
-11 -76 -16 -87 -14 -26 -14 -118 0 -126 14 -9 44 20 91 88 21 32 43 55 47 52
5 -2 11 -17 14 -32 3 -16 17 -45 31 -66 15 -21 24 -42 21 -46 -4 -8 -22 -12
-140 -32 -126 -21 -269 -79 -294 -120 -7 -12 -16 -60 -19 -106 l-5 -83 -64
-45 c-35 -25 -66 -45 -69 -45 -46 0 -35 218 21 438 8 29 12 58 9 65 -2 7 -26
23 -52 37 -26 14 -48 32 -50 41 -4 22 79 112 132 143 52 31 182 57 251 50 38
-3 56 -11 74 -31z m2627 -2 c26 -16 32 -27 37 -72 4 -29 22 -85 42 -124 37
-75 42 -104 24 -122 -13 -13 12 -95 30 -101 21 -7 1 156 -30 242 -29 81 -39
129 -18 94 17 -29 56 -159 79 -258 11 -52 25 -103 31 -113 15 -27 7 -29 -34
-12 -20 8 -48 15 -61 15 -21 0 -27 7 -36 39 -6 22 -22 59 -35 83 -32 54 -48
110 -50 168 -3 74 -27 150 -47 150 -22 0 -23 -24 -4 -82 8 -24 19 -67 26 -96
7 -28 16 -54 20 -57 4 -3 11 -25 14 -50 4 -24 18 -72 32 -106 17 -42 22 -65
15 -72 -7 -7 -12 -6 -15 4 -3 8 -17 52 -32 99 -15 47 -30 87 -33 90 -3 3 -6
10 -7 15 0 13 -11 54 -41 155 l-25 84 27 23 c32 28 51 29 91 4z m324 -10 c0
-11 -12 -40 -27 -65 -29 -46 -28 -46 -110 -50 -19 -1 -51 80 -37 94 12 12 112
39 147 39 20 1 27 -4 27 -18z m359 3 c23 -14 71 -74 71 -90 0 -3 -16 8 -35 25
-39 34 -43 35 -65 21 -12 -7 -7 -16 27 -49 23 -22 45 -51 49 -65 7 -30 22 -34
32 -8 11 29 20 -77 11 -131 -12 -65 -33 -107 -78 -156 -44 -48 -72 -52 -122
-18 -64 43 -92 147 -77 288 8 78 34 136 78 173 36 30 70 33 109 10z m-219 -14
c0 -14 -31 -26 -75 -29 -50 -2 -37 14 20 28 54 12 55 12 55 1z m-2643 -208
c32 -18 65 -37 73 -42 8 -5 23 -11 33 -14 23 -7 18 -42 -5 -40 -9 1 -14 -4
-12 -11 7 -18 -56 -62 -65 -46 -4 6 -15 9 -24 5 -12 -4 -17 -1 -17 10 0 9 -5
16 -11 16 -5 0 -7 -4 -4 -10 3 -5 -1 -10 -9 -10 -8 0 -18 5 -21 10 -4 6 -10 8
-15 5 -4 -3 -13 2 -20 10 -16 19 -30 19 -30 -1 0 -8 4 -13 8 -10 5 3 18 -4 30
-14 12 -11 26 -20 32 -20 5 0 10 -7 10 -15 0 -8 -7 -15 -15 -15 -8 0 -15 5
-15 11 0 5 -5 7 -10 4 -6 -3 -13 1 -16 9 -3 8 -14 18 -25 21 -10 4 -19 14 -19
23 0 9 -12 29 -28 43 -32 31 -68 100 -63 123 1 4 -4 14 -10 22 -7 8 -9 17 -5
21 3 4 12 -8 18 -25 7 -17 18 -34 25 -36 20 -8 16 10 -13 55 l-26 41 28 29 28
29 67 -73 c40 -44 91 -86 126 -105z m2319 131 c3 -16 10 -41 15 -57 5 -16 9
-41 8 -55 0 -20 -5 -14 -19 25 -26 74 -33 114 -21 114 6 0 13 -12 17 -27z
m338 -25 c-7 -29 -14 -94 -14 -144 0 -77 4 -98 25 -140 14 -27 25 -53 25 -58
0 -5 8 -15 18 -22 15 -12 15 -13 1 -14 -19 0 -42 24 -32 33 3 4 -6 16 -20 27
-42 33 -61 98 -54 183 6 73 27 148 48 174 18 21 18 16 3 -39z m-162 20 c-16
-16 -15 -39 2 -32 7 3 16 -2 19 -10 8 -19 33 -21 41 -3 3 6 3 0 -1 -16 -4 -23
-2 -26 12 -21 15 6 16 3 9 -17 -4 -13 -8 -43 -8 -67 -1 -23 -6 -46 -12 -50 -6
-4 -17 -21 -24 -39 -22 -49 -40 -24 -41 56 -1 60 -2 62 -8 24 -12 -69 -25 -68
-34 2 -3 24 -4 22 -6 -11 0 -22 6 -63 14 -90 19 -61 19 -69 1 -54 -21 17 -39
109 -34 172 5 66 60 189 76 173 3 -3 0 -11 -6 -17z m-3522 -60 c0 -25 -9 -22
-47 14 -44 43 -42 54 7 26 22 -13 40 -31 40 -40z m673 27 l37 -7 -31 -43 c-47
-65 -86 -111 -92 -105 -5 6 9 142 19 172 6 19 8 20 18 6 7 -9 29 -19 49 -23z
m3294 3 c-3 -8 -6 -5 -6 6 -1 11 2 17 5 13 3 -3 4 -12 1 -19z m-962 -8 c4 -6
-19 -10 -61 -10 -158 0 -383 -85 -506 -192 -32 -28 -57 -53 -54 -55 2 -3 26
10 53 28 89 62 157 100 213 119 138 46 213 61 296 62 79 0 117 -8 87 -19 -23
-8 -14 -27 23 -51 26 -17 33 -27 26 -34 -8 -8 -7 -19 2 -37 20 -39 36 -94 36
-124 0 -15 4 -27 10 -27 9 0 16 20 23 70 2 14 7 -6 11 -43 7 -57 5 -75 -10
-109 -34 -76 -158 -151 -300 -183 -41 -9 -74 -21 -74 -26 0 -5 6 -10 13 -10
41 -5 -115 -19 -269 -25 -156 -6 -192 -4 -260 11 -88 20 -134 46 -134 76 0 10
-5 19 -11 19 -6 0 -9 -16 -7 -37 3 -32 9 -41 38 -55 120 -59 437 -87 643 -58
170 25 216 33 284 51 89 23 85 24 72 -4 -39 -86 -628 -134 -874 -71 -100 25
-175 56 -190 78 -59 83 51 246 285 422 192 145 263 186 369 214 95 25 255 37
266 20z m-2851 -80 c47 -29 30 -39 -25 -15 -39 18 -45 25 -32 39 8 7 6 8 57
-24z m3231 -30 c3 -5 1 -10 -4 -10 -6 0 -11 5 -11 10 0 6 2 10 4 10 3 0 8 -4
11 -10z m-3275 -125 c-11 -13 -9 -75 3 -75 4 0 7 -11 7 -25 0 -14 -5 -25 -11
-25 -7 0 -8 -11 -4 -30 7 -31 -2 -39 -23 -18 -9 9 -12 9 -12 0 0 -7 7 -15 15
-18 15 -6 21 -54 7 -54 -17 0 -42 69 -33 92 6 17 3 30 -11 51 -18 25 -18 28
-4 43 9 8 16 20 16 26 0 5 10 23 21 40 16 22 24 26 30 17 4 -7 4 -18 -1 -24z
m643 -16 c33 -15 34 -22 4 -42 -21 -14 -30 -14 -83 0 -32 8 -76 17 -96 20 -45
6 -50 20 -10 29 15 3 32 8 37 10 19 7 120 -4 148 -17z m-636 -11 c-3 -8 -6 -5
-6 6 -1 11 2 17 5 13 3 -3 4 -12 1 -19z m769 -14 l25 -17 -38 -25 c-21 -13
-44 -32 -50 -40 -17 -21 -16 -95 1 -162 8 -30 13 -57 11 -59 -2 -2 -27 16 -55
40 -43 37 -50 49 -47 72 2 15 0 30 -5 33 -15 9 -8 81 10 102 13 16 104 70 120
72 1 0 14 -7 28 -16z m124 -14 c0 -5 -2 -10 -4 -10 -3 0 -8 5 -11 10 -3 6 -1
10 4 10 6 0 11 -4 11 -10z m2456 -22 c9 -18 23 -38 31 -46 16 -17 10 -28 -9
-16 -7 5 -21 7 -30 6 -11 -2 -18 3 -18 12 0 19 16 21 23 4 4 -8 6 -7 6 3 1 9
-6 22 -14 29 -14 11 -21 40 -10 40 2 0 12 -14 21 -32z m-2483 -40 c37 -18 67
-37 67 -43 0 -7 -11 -17 -25 -23 -22 -10 -33 -8 -73 12 -26 13 -59 26 -74 30
-16 3 -28 10 -28 14 0 7 49 41 60 42 3 0 35 -14 73 -32z m2572 12 c3 -5 -1
-10 -9 -10 -8 0 -18 5 -21 10 -3 6 1 10 9 10 8 0 18 -4 21 -10z m123 -7 c2 -9
-7 -13 -27 -13 -34 0 -50 16 -24 23 27 7 46 3 51 -10z m-3638 -14 c0 -5 -4 -9
-10 -9 -5 0 -10 7 -10 16 0 8 5 12 10 9 6 -3 10 -10 10 -16z m3251 -5 c-16
-20 -21 -41 -21 -83 0 -63 15 -93 61 -116 34 -18 37 -31 8 -38 -30 -8 -68 9
-106 48 -26 27 -33 42 -33 75 0 49 20 90 56 119 40 31 61 28 35 -5z m100 3
c58 -44 49 -197 -12 -197 -57 0 -99 50 -99 118 0 67 66 114 111 79z m619 8 c0
-3 -10 -19 -21 -35 -18 -23 -21 -38 -17 -89 3 -40 10 -67 23 -81 21 -24 15
-35 -14 -25 -39 12 -51 34 -46 78 2 23 2 34 -1 24 -3 -9 -10 -14 -15 -11 -6 3
-16 -2 -23 -11 -11 -16 -26 -16 -177 -6 -243 17 -259 19 -259 45 0 11 -3 31
-6 43 -6 21 -5 21 128 17 283 -9 330 -13 348 -29 16 -14 18 -14 23 4 3 13 -1
21 -12 24 -13 3 -13 5 4 12 11 5 26 17 33 27 12 17 32 25 32 13z m100 -54 c6
-17 10 -36 7 -43 -2 -7 -8 -1 -12 15 -9 34 -24 34 -58 -1 -33 -35 -34 -42 -2
-42 30 0 41 -20 25 -49 -16 -31 5 -26 29 7 17 23 20 24 21 8 0 -27 -39 -66
-65 -66 -69 0 -94 164 -32 212 18 14 25 15 48 3 14 -8 32 -28 39 -44z m-3744
-9 c-12 -11 -18 7 -10 30 l8 23 4 -23 c2 -13 1 -26 -2 -30z m1687 -53 c-5 -5
-17 -10 -28 -12 -11 -2 -33 -9 -49 -16 -39 -16 -43 -8 -9 14 15 10 34 27 41
37 7 10 20 18 28 18 8 0 15 6 15 13 1 6 4 -1 6 -17 3 -16 1 -32 -4 -37z
m-1064 -37 c-9 -25 -8 -42 5 -79 20 -57 20 -53 -3 -53 -28 0 -44 26 -45 75 -1
33 5 49 23 69 30 32 34 29 20 -12z m2501 -124 c18 -57 45 -140 61 -186 16 -46
29 -88 29 -93 0 -11 -61 -39 -84 -39 -9 0 -20 16 -26 43 -7 23 -28 95 -47 160
-31 104 -34 122 -23 143 20 37 35 29 49 -26 7 -27 17 -52 22 -56 15 -9 10 22
-11 78 -22 58 -25 78 -11 78 6 0 24 -46 41 -102z m139 61 c-6 -23 -19 -68 -29
-100 -11 -32 -22 -69 -24 -81 -5 -39 -19 -26 -37 36 -18 59 -18 59 5 90 13 17
31 46 40 64 10 19 24 32 35 32 17 0 18 -4 10 -41z m152 -19 c22 -73 50 -187
56 -226 5 -30 2 -32 -42 -47 -26 -9 -69 -30 -96 -47 l-50 -31 -28 20 c-15 11
-32 36 -38 55 -10 31 -6 49 27 150 21 63 42 131 46 151 l6 36 52 -3 51 -3 16
-55z m-3271 39 c0 -5 -10 -29 -22 -52 -24 -47 -58 -168 -58 -209 0 -23 -5 -27
-42 -33 -111 -18 -256 -93 -379 -195 -64 -53 -113 -68 -189 -55 -66 11 -64 56
3 69 26 5 41 19 76 74 71 107 121 173 130 167 5 -2 12 -20 15 -38 19 -100 151
-105 195 -7 10 22 30 49 45 61 37 29 33 70 -9 84 -30 10 -92 53 -84 58 11 6
49 30 86 55 37 24 52 27 137 29 60 2 96 -1 96 -8z m3364 2 c20 -8 31 -40 62
-176 22 -96 22 -100 -3 -103 -16 -2 -26 4 -35 22 -6 14 -15 26 -20 26 -11 0
-10 -17 2 -25 12 -8 13 -25 1 -25 -11 0 -24 33 -55 140 -38 132 -38 138 -19
143 27 7 46 6 67 -2z m-784 -10 c0 -10 -104 -51 -128 -51 -10 0 12 14 48 29
73 33 80 34 80 22z m190 -86 c0 -25 -164 -645 -194 -732 -13 -39 -34 -111 -46
-160 -11 -48 -37 -151 -56 -228 -20 -77 -42 -167 -50 -200 -36 -161 -34 -156
-102 -186 -34 -16 -62 -25 -62 -21 0 4 10 23 21 42 12 20 25 65 30 104 5 39
13 74 19 80 5 5 10 20 10 32 0 12 16 76 36 141 19 65 49 174 66 243 16 69 43
172 59 230 17 58 52 191 80 295 27 105 60 231 74 280 14 50 25 102 25 116 0
14 3 28 6 32 8 8 84 -54 84 -68z m-3125 53 c38 -17 30 -28 -21 -28 -37 0 -51
-5 -75 -29 -19 -20 -29 -40 -29 -60 0 -22 -15 -50 -56 -101 -31 -38 -58 -70
-60 -70 -2 0 -3 24 -3 53 1 28 3 44 6 35 6 -24 13 -22 42 8 22 23 23 27 8 35
-9 5 -14 16 -11 23 3 8 1 17 -5 20 -6 4 -15 -8 -21 -26 -9 -31 -10 -31 -5 11
7 57 19 77 56 97 24 12 34 13 45 3 16 -13 44 4 44 27 0 17 49 19 85 2z m3 -96
c26 -47 33 -152 11 -178 -33 -40 -93 5 -109 82 -14 65 -8 96 22 124 31 28 49
22 76 -28z m63 -21 c0 -14 3 -20 6 -13 6 15 49 16 58 2 9 -14 -13 -40 -34 -40
-10 0 -21 -13 -26 -32 -17 -54 -30 -42 -32 29 -1 36 -7 71 -13 77 -5 5 -10 16
-10 23 0 27 50 -18 51 -46z m1799 -1 c0 -20 -119 -89 -230 -132 -164 -65 -163
-65 -155 -36 10 33 9 32 125 71 58 19 139 51 180 70 41 20 76 36 78 36 1 1 2
-3 2 -9z m1085 -40 c3 -6 -1 -13 -9 -16 -9 -3 -16 -15 -16 -25 0 -20 -15 -26
-24 -10 -3 5 1 14 9 21 7 6 11 18 8 26 -6 16 22 20 32 4z m-1015 -20 c-13 -11
-28 -20 -33 -20 -6 0 -2 9 8 20 10 11 25 20 33 20 11 0 8 -6 -8 -20z m199 -4
c7 -8 14 -31 16 -50 2 -20 13 -55 24 -77 12 -23 20 -43 18 -45 -2 -2 -61 -15
-132 -30 -71 -14 -142 -32 -157 -40 -36 -19 -45 -18 -51 6 -3 11 -11 20 -17
20 -8 0 -10 -9 -6 -24 6 -23 -7 -36 -34 -36 -18 0 -21 40 -5 64 12 18 15 37
10 73 l-6 48 19 -23 18 -24 17 26 c21 32 21 37 0 30 -38 -10 26 16 132 54 125
45 138 48 154 28z m681 -1 c6 -8 32 -26 56 -40 40 -23 57 -45 36 -45 -8 0 -93
62 -120 88 -11 10 -11 12 1 12 8 0 20 -7 27 -15z m-347 -14 c106 -1 105 0 83
-63 -12 -32 -12 -38 0 -38 19 0 18 -7 -7 -42 -17 -23 -19 -32 -9 -41 9 -9 19
-3 44 26 38 43 80 144 62 150 -16 6 -3 16 25 19 21 3 24 0 21 -27 -11 -105
-192 -295 -280 -295 -31 0 -126 85 -115 103 3 5 1 7 -4 4 -13 -8 -79 70 -98
117 -17 41 -19 78 -5 92 5 5 45 6 97 2 48 -3 132 -7 186 -7z m803 -41 c8 -25
14 -46 14 -47 0 -2 -17 -3 -37 -3 -43 0 -113 17 -113 28 0 12 94 71 109 69 8
-1 20 -22 27 -47z m-445 -36 c48 -30 60 -43 65 -70 3 -19 3 -42 -1 -51 -4 -10
-9 -49 -10 -86 -2 -38 -6 -71 -9 -74 -2 -3 -13 1 -24 8 -19 14 -20 28 -7 62 9
23 -5 22 -59 -4 l-44 -20 -56 36 c-31 19 -56 38 -56 41 0 3 25 38 56 77 31 40
60 82 65 95 5 12 11 22 15 22 3 0 32 -16 65 -36z m1128 16 c224 -26 445 -143
654 -348 108 -106 109 -108 45 -127 -79 -24 -193 -44 -283 -51 l-80 -7 -85 88
c-100 102 -149 134 -245 157 -91 22 -113 22 -152 -2 -48 -29 -66 -65 -75 -144
-6 -59 -12 -75 -34 -94 -14 -13 -31 -21 -36 -20 -10 4 -39 78 -90 227 -18 53
-19 66 -9 83 11 18 11 20 -4 14 -31 -11 5 25 40 41 19 9 22 13 8 10 -42 -9
-12 20 45 42 31 12 79 32 106 44 41 18 68 22 154 22 99 0 102 0 71 14 -19 8
-68 16 -109 19 -90 5 -196 -20 -293 -71 -34 -17 -65 -33 -69 -35 -5 -2 -8 3
-8 10 0 17 124 84 195 105 41 13 104 25 160 32 6 0 48 -3 94 -9z m-2209 -37
c0 -5 -9 -19 -19 -32 -16 -21 -20 -22 -39 -10 -21 13 -21 14 11 31 36 19 47
22 47 11z m1524 -76 c14 -29 16 -49 11 -82 -3 -25 -11 -45 -17 -45 -7 0 -8 14
-4 40 5 31 3 42 -9 46 -8 3 -12 10 -9 15 9 16 -16 39 -42 39 -17 0 -31 -12
-49 -40 -21 -33 -25 -52 -25 -112 0 -64 3 -75 27 -100 l27 -28 -27 0 c-39 0
-60 38 -59 108 3 168 119 273 176 159z m-3190 -6 c-160 -112 -244 -329 -244
-631 0 -147 48 -296 133 -414 51 -70 195 -214 242 -241 154 -90 438 -64 576
52 16 14 33 22 37 18 11 -10 -44 -50 -131 -96 -67 -35 -92 -42 -177 -51 -242
-27 -373 35 -550 257 -78 98 -113 171 -141 295 -18 81 -20 115 -16 226 8 188
39 317 104 433 46 83 95 136 158 172 79 46 85 34 9 -20z m1608 5 c18 -31 22
-76 21 -222 l-2 -131 -38 -53 c-21 -29 -50 -67 -65 -84 l-26 -31 -179 0 c-146
0 -187 3 -230 18 -63 22 -113 74 -148 154 -27 59 -57 164 -50 171 2 3 42 -13
87 -35 95 -47 136 -57 182 -49 42 8 95 61 135 135 l31 58 76 7 c83 6 103 -1
105 -38 2 -21 2 -21 6 1 8 42 -13 63 -63 63 -25 0 -54 -5 -65 -11 -32 -17 -51
-5 -38 24 9 20 24 26 87 38 101 19 159 14 174 -15z m-1535 -43 c-19 -27 -45
-57 -56 -67 -12 -11 -21 -23 -21 -29 0 -5 -25 -36 -55 -69 -30 -32 -55 -65
-55 -72 0 -8 -7 -19 -15 -26 -12 -10 -16 -9 -20 2 -9 24 52 131 113 199 56 62
131 123 140 115 2 -3 -12 -27 -31 -53z m523 19 c109 -45 220 -104 215 -113
-10 -15 -26 -11 -61 16 -35 27 -49 32 -38 14 3 -6 -12 3 -35 19 -27 20 -53 30
-76 30 -19 0 -35 -3 -35 -7 0 -4 27 -30 60 -59 56 -49 75 -82 49 -82 -6 0 -36
22 -66 50 -29 27 -76 62 -103 77 -55 31 -60 43 -31 72 22 22 35 20 121 -17z
m2812 -159 c36 -108 69 -198 75 -200 20 -7 -35 213 -79 317 -12 29 -14 40 -5
30 16 -17 55 -124 173 -465 45 -132 101 -293 124 -359 26 -74 39 -127 36 -142
-10 -39 -116 -91 -139 -68 -9 9 38 44 70 53 37 10 42 31 7 31 -21 0 -39 -11
-65 -41 -32 -36 -39 -40 -57 -30 -22 12 -35 49 -87 246 -15 55 -33 125 -41
155 -8 30 -19 78 -25 105 -5 28 -22 93 -38 145 -89 287 -111 374 -101 384 8 8
60 31 81 35 4 0 35 -88 71 -196z m-275 135 c19 -39 23 -71 10 -87 -10 -12 -9
-14 6 -8 21 8 22 -6 1 -39 -13 -19 -20 -22 -30 -13 -8 6 -14 20 -14 31 0 10
-7 29 -16 42 -13 22 -13 28 0 60 17 42 28 45 43 14z m-612 -7 c-3 -6 -11 -11
-16 -11 -5 0 -4 6 3 14 14 16 24 13 13 -3z m-561 -10 c4 -5 0 -12 -6 -15 -7
-3 -2 -3 11 0 17 4 22 2 19 -7 -3 -8 -16 -14 -29 -14 -17 0 -25 6 -27 23 -3
22 21 32 32 13z m-1436 -61 c5 -15 -35 -53 -50 -48 -6 2 -17 22 -25 44 l-12
39 5 -38 c5 -36 4 -38 -18 -35 -31 4 -34 32 -6 67 l23 28 40 -23 c22 -13 41
-28 43 -34z m1366 52 c-6 -4 -11 -17 -10 -30 1 -19 -9 -27 -59 -47 -33 -14
-62 -25 -65 -25 -3 0 -10 11 -16 25 -11 22 -9 26 21 44 49 29 76 35 86 20 6
-11 9 -10 15 4 3 9 14 17 23 17 10 0 12 -3 5 -8z m206 -1 c0 -4 11 -6 25 -3
14 2 40 -2 58 -9 l32 -13 -44 -8 c-47 -8 -86 -33 -42 -26 37 5 37 -20 -1 -38
l-33 -15 38 6 c33 5 37 3 37 -15 0 -14 -7 -20 -22 -20 -12 0 -19 -2 -16 -5 7
-7 48 -8 83 -1 17 3 24 3 18 0 -7 -3 -13 -12 -13 -20 0 -10 -8 -14 -22 -12
-19 3 -23 -2 -23 -27 0 -26 -6 -32 -45 -47 -40 -16 -41 -18 -10 -12 19 4 42 8
50 9 8 1 27 5 42 10 33 9 66 -1 52 -15 -5 -5 -24 -11 -41 -13 -18 -2 -38 -8
-45 -14 -12 -9 -123 -43 -141 -43 -4 0 -7 7 -7 15 0 8 4 15 8 15 5 0 17 7 28
16 20 16 13 16 -32 -3 -14 -5 -16 -1 -12 24 2 16 -2 35 -9 41 -7 7 -10 18 -7
26 3 8 1 17 -5 21 -18 10 -13 25 12 36 20 9 20 9 -5 4 -24 -5 -28 -1 -37 32
-16 56 -14 63 19 70 17 3 30 9 30 14 0 5 7 9 16 9 8 0 12 5 9 10 -4 6 7 10 24
10 17 0 31 -4 31 -9z m-1960 -9 c0 -5 -22 -23 -50 -41 -102 -66 -187 -195
-214 -325 -20 -97 -20 -172 -1 -273 19 -101 18 -109 -6 -48 -14 34 -22 83 -26
155 -4 93 -2 115 22 195 14 49 38 111 52 137 33 60 105 138 163 177 47 32 60
37 60 23z m3100 -8 c0 -8 -5 -12 -10 -9 -6 4 -8 11 -5 16 9 14 15 11 15 -7z
m-1300 -73 l-1 -26 -19 24 c-11 13 -20 35 -20 50 l1 26 19 -24 c11 -13 20 -35
20 -50z m283 33 c9 -4 17 -10 17 -15 0 -4 -8 -13 -17 -18 -20 -12 -13 -14 32
-11 46 3 18 -17 -33 -23 -36 -4 -43 -3 -40 11 1 10 -1 23 -6 30 -11 18 1 45
17 38 6 -3 20 -9 30 -12z m988 -49 c-48 -53 -86 -129 -136 -271 -36 -104 -42
-106 -24 -8 20 106 103 259 173 316 37 30 30 9 -13 -37z m-3091 15 c0 -19 7
-34 20 -42 25 -16 25 -25 0 -33 -52 -16 -120 -104 -120 -155 0 -14 -7 -20 -23
-20 -12 0 -40 -12 -61 -26 l-39 -27 7 39 c12 65 68 160 135 229 35 36 68 65
72 65 5 0 9 -13 9 -30z m461 4 l24 -25 -25 -21 -25 -20 33 19 c29 16 34 16 42
3 13 -21 8 -33 -22 -49 -24 -14 -28 -13 -58 17 -17 18 -36 32 -41 32 -16 0
-10 23 13 47 27 29 29 29 59 -3z m1887 -16 c42 -29 42 -29 27 -58 -9 -17 -19
-30 -23 -30 -14 0 -116 66 -120 78 -9 27 30 24 66 -5 20 -16 44 -33 52 -37 20
-10 -41 46 -65 60 -11 6 -15 15 -11 22 8 13 11 12 74 -30z m-2078 28 c0 -11
-19 -15 -25 -6 -3 5 1 10 9 10 9 0 16 -2 16 -4z m475 -8 c14 -42 10 -51 -30
-63 -22 -7 -59 -22 -82 -34 -23 -12 -47 -21 -53 -21 -5 0 -10 -4 -10 -8 0 -5
-53 -36 -117 -69 -65 -33 -142 -75 -171 -92 -44 -26 -59 -30 -84 -23 -30 7
-26 10 113 94 246 146 393 228 412 228 10 0 20 -6 22 -12z m1039 -10 c3 -13 6
-33 6 -44 0 -12 7 -35 15 -50 8 -16 15 -36 15 -44 0 -8 9 -33 20 -55 25 -52
25 -64 -2 -75 -22 -8 -22 -9 5 -9 20 -1 27 -6 27 -21 0 -11 5 -20 10 -20 13 0
13 23 -1 37 -6 6 -8 17 -4 23 12 19 24 -1 45 -76 23 -79 24 -84 10 -84 -5 0
-15 20 -21 44 -9 37 -14 43 -28 36 -36 -18 -104 -31 -113 -22 -7 7 7 16 41 29
28 10 51 21 51 25 0 13 -24 9 -65 -12 -47 -24 -45 -24 -45 -5 0 8 15 21 33 29
l32 14 -37 -5 c-30 -5 -38 -2 -38 10 0 10 12 18 35 23 19 3 38 11 41 16 4 6
-1 8 -12 5 -61 -19 -74 -19 -74 -3 0 9 14 19 33 25 17 5 24 10 15 10 -9 1 -29
-4 -43 -11 -35 -16 -45 -1 -16 24 l25 19 -27 -6 c-39 -10 -33 0 16 29 23 14
35 26 27 26 -8 0 -30 -9 -47 -20 -32 -19 -33 -19 -33 -1 0 13 17 27 53 44 31
16 44 26 32 26 -11 1 -39 -10 -62 -23 -24 -14 -45 -21 -48 -16 -8 14 5 37 28
48 19 9 18 10 -10 5 -53 -9 -41 21 20 51 65 31 83 32 91 4z m613 9 c19 1 20
-2 10 -18 -15 -24 -18 -24 -45 1 -26 25 -28 35 -4 24 9 -4 27 -7 39 -7z m216
-12 c25 -34 -1 -34 -33 0 -22 23 -22 25 -4 25 10 0 27 -12 37 -25z m-2400 -85
c-14 -13 -15 -13 -9 3 3 10 6 33 7 50 l1 32 8 -35 c7 -27 5 -38 -7 -50z m110
69 c34 -9 117 -71 117 -88 0 -3 -20 -17 -45 -30 l-44 -23 -40 31 c-21 17 -44
31 -50 31 -6 0 -11 6 -11 14 0 7 -3 28 -6 45 -6 28 -4 31 17 31 13 0 41 -5 62
-11z m2230 -21 c50 -16 67 -27 67 -40 0 -10 -4 -18 -10 -18 -5 0 -10 -9 -10
-20 0 -24 -11 -25 -53 -3 -74 38 -108 65 -96 79 6 7 7 19 3 25 -5 9 -1 10 12
6 10 -3 49 -16 87 -29z m1172 13 c3 -5 -2 -17 -11 -26 -26 -25 -107 -3 -90 24
9 13 93 15 101 2z m-1860 -110 c23 -84 17 -120 -10 -55 -19 47 -45 133 -45
153 0 38 33 -21 55 -98z m565 104 c0 -12 -24 -55 -32 -55 -11 0 -10 4 4 35 9
21 28 35 28 20z m-90 -86 c0 -15 -19 -10 -63 17 -44 29 -59 43 -51 55 5 9 114
-60 114 -72z m656 54 c-10 -10 -19 5 -10 18 6 11 8 11 12 0 2 -7 1 -15 -2 -18z
m-2900 -34 c28 -26 107 -37 129 -19 12 10 18 11 28 1 16 -16 16 -61 0 -61 -7
0 -14 -6 -14 -12 -1 -7 -2 -19 -3 -27 -1 -15 -81 -69 -104 -70 -9 -1 -11 6 -8
19 19 66 19 67 -8 37 -28 -30 -33 -28 -15 5 10 18 8 19 -11 13 -17 -6 -21 -4
-15 6 5 8 -4 3 -18 -10 -40 -37 -32 -14 14 41 23 27 39 52 36 54 -9 10 -94
-75 -107 -106 -12 -30 -35 -37 -71 -22 -23 10 -7 59 37 111 55 63 93 75 130
40z m614 -13 c0 -6 32 -44 70 -85 39 -40 70 -77 70 -82 0 -17 -30 -83 -46
-100 -8 -9 -24 -14 -37 -12 -20 4 -24 14 -36 86 -15 96 -45 173 -74 189 -20
10 -20 11 4 23 25 14 49 4 49 -19z m1525 24 c4 -6 24 -22 46 -36 37 -23 51
-44 30 -44 -13 0 -111 62 -111 70 0 19 25 26 35 10z m280 -27 c35 -21 64 -44
65 -52 0 -8 -6 -11 -15 -7 -20 7 -135 85 -135 91 0 12 26 2 85 -32z m-345 8
c0 -12 -75 -25 -90 -16 -6 3 -8 11 -5 16 8 12 95 12 95 0z m220 -1 c0 -18 -72
-160 -81 -160 -16 0 -10 24 26 98 30 63 55 91 55 62z m50 0 c0 -5 27 -24 60
-42 63 -35 70 -47 45 -72 -9 -8 -15 -19 -15 -23 3 -18 -19 -11 -70 22 -29 19
-58 36 -63 38 -6 2 -8 8 -6 15 4 12 11 10 92 -36 20 -12 37 -18 37 -14 0 8
-65 52 -77 52 -3 0 -15 7 -24 16 -14 13 -16 21 -8 35 10 20 29 26 29 9z m1553
-70 c26 -25 50 -53 53 -62 3 -9 14 -20 25 -23 42 -14 42 -40 -1 -132 -45 -97
-65 -124 -85 -116 -11 4 -12 0 -3 -19 11 -22 13 -23 28 -9 9 9 16 19 14 22 -2
3 6 21 18 40 11 19 33 63 48 98 l27 63 22 -30 c11 -17 21 -34 21 -39 0 -4 7
-21 15 -36 20 -39 36 -169 35 -284 -1 -95 -16 -267 -26 -308 -5 -18 -4 -19 9
-3 13 17 37 145 56 303 9 73 9 68 6 -60 -3 -110 -9 -162 -29 -240 -36 -136
-68 -196 -151 -279 -91 -90 -152 -130 -250 -161 -71 -24 -88 -25 -170 -19
-158 12 -269 66 -378 185 -151 166 -249 428 -216 578 14 64 7 76 -33 56 -33
-16 -33 -16 7 19 49 44 68 47 58 9 -5 -16 -7 -82 -6 -148 1 -136 18 -201 79
-313 77 -138 106 -172 212 -249 78 -56 141 -87 221 -108 58 -15 69 -15 144 0
95 20 239 96 277 147 12 17 16 27 9 23 -8 -5 -20 -17 -27 -27 -19 -26 -40 -35
-99 -43 -47 -6 -53 -5 -53 12 -1 17 -1 17 -11 1 -13 -24 -94 -26 -85 -3 3 8 1
15 -3 15 -5 0 -11 -7 -15 -15 -7 -19 -42 -20 -49 -1 -3 8 -14 12 -25 9 -10 -2
-35 2 -54 10 -28 12 -39 25 -52 59 l-16 43 6 -38 c5 -37 5 -38 -18 -26 -42 22
-49 30 -37 46 19 22 75 45 106 42 28 -2 101 28 137 56 31 24 47 19 41 -12 l-5
-28 11 25 c12 25 15 34 17 58 1 6 8 12 15 12 7 0 21 15 31 33 l19 32 -34 -31
c-81 -73 -128 -104 -179 -117 -164 -42 -318 88 -350 298 -11 67 -2 142 21 185
8 16 8 16 29 -84 21 -97 49 -146 99 -172 149 -77 165 -81 208 -55 127 79 142
263 36 419 -40 59 -75 82 -126 82 -31 0 -36 4 -50 41 -17 42 -15 59 5 59 6 0
19 7 28 15 11 10 41 16 91 17 91 2 141 -20 211 -94 61 -64 87 -134 94 -254 7
-104 -6 -159 -57 -251 -16 -29 -24 -53 -18 -53 7 0 9 -10 7 -25 -3 -14 -1 -25
3 -25 5 0 9 17 9 39 0 23 6 44 15 51 9 7 14 19 11 25 -2 7 5 27 16 46 l20 33
19 -25 c10 -13 18 -28 17 -34 -1 -5 3 -19 7 -29 8 -19 9 -19 15 0 4 11 1 24
-7 32 -8 8 -17 27 -20 43 -3 16 -9 29 -14 29 -5 0 -9 19 -9 43 l1 42 24 -28
c14 -15 25 -34 25 -41 0 -8 7 -16 15 -20 8 -3 15 -12 15 -21 0 -8 4 -15 10
-15 11 0 -8 50 -25 65 -7 6 -15 30 -18 55 -3 25 -9 62 -13 82 -5 31 -3 39 12
45 11 5 20 14 22 22 2 11 0 12 -11 3 -22 -19 -50 -3 -44 24 2 13 1 21 -3 19
-10 -6 -20 20 -20 49 0 12 -4 26 -9 31 -31 33 -60 315 -38 369 9 21 14 18 90
-54z m-3340 -2 c31 -73 51 -162 43 -184 -9 -23 -26 -7 -26 24 0 42 -35 160
-54 181 -20 21 -21 41 -3 41 8 0 26 -28 40 -62z m1603 25 c24 -16 44 -34 44
-40 0 -18 -13 -16 -41 5 -13 10 -32 21 -41 25 -17 6 -26 37 -12 37 4 0 26 -12
50 -27z m908 9 c11 -33 13 -82 5 -88 -24 -14 -52 -102 -50 -157 1 -44 -4 -67
-20 -93 -11 -19 -24 -34 -29 -34 -5 0 -17 -3 -27 -6 -10 -4 0 10 22 30 56 50
32 45 -29 -6 -55 -46 -91 -86 -91 -103 0 -5 -5 -16 -9 -24 -7 -10 -5 -13 5 -9
8 3 25 9 39 13 23 7 24 6 11 -9 -19 -22 -71 -49 -79 -41 -10 10 -15 223 -6
253 7 23 9 17 14 -33 l5 -60 14 45 c7 25 24 59 37 77 13 17 36 64 50 105 26
72 43 103 51 94 3 -2 -1 -14 -7 -26 -6 -12 -10 -24 -8 -26 5 -4 58 74 58 85 0
9 22 31 31 31 4 0 10 -8 13 -18z m-2553 -48 c12 -25 19 -55 16 -65 -3 -10 -2
-19 3 -19 8 0 23 -80 16 -87 -2 -3 -24 -2 -48 2 -41 6 -45 9 -56 48 -7 23 -13
51 -14 62 -2 28 34 105 50 105 7 0 22 -21 33 -46z m1055 -9 c13 -31 24 -59 24
-63 0 -5 -15 -14 -34 -20 -58 -21 -132 -97 -168 -170 -48 -101 -96 -169 -133
-186 -44 -21 -121 -20 -285 4 -74 11 -141 20 -147 20 -7 0 -13 5 -13 10 0 6
23 10 51 10 72 0 52 16 -31 24 -77 8 -87 19 -49 57 19 19 28 20 92 14 40 -4
94 -11 121 -16 164 -30 218 1 351 202 61 94 105 138 155 158 39 15 40 14 66
-44z m954 45 c0 -5 -5 -10 -11 -10 -5 0 -7 5 -4 10 3 6 8 10 11 10 2 0 4 -4 4
-10z m-2088 -30 c-15 -26 -19 -28 -32 -14 -13 14 -13 17 4 30 34 25 47 18 28
-16z m1686 10 c71 -54 70 -54 58 -77 -12 -21 -12 -21 -36 -1 l-25 19 25 -6
c19 -6 16 0 -17 25 -24 17 -43 38 -43 46 0 19 7 18 38 -6z m-1707 -90 c13 -38
20 -72 17 -76 -4 -3 -23 -2 -43 2 -32 8 -39 15 -56 58 -20 53 -18 63 15 76 38
15 43 11 67 -60z m1609 60 c-8 -5 -19 -10 -25 -10 -5 0 -3 5 5 10 8 5 20 10
25 10 6 0 3 -5 -5 -10z m70 -5 c7 -9 8 -15 2 -15 -5 0 -12 7 -16 15 -3 8 -4
15 -2 15 2 0 9 -7 16 -15z m315 -55 c9 -15 -1 -50 -24 -79 l-18 -24 -67 38
c-36 20 -66 41 -66 46 0 14 28 11 56 -7 13 -9 27 -14 30 -12 3 3 -11 15 -30
26 -24 14 -34 26 -30 37 8 20 9 20 72 -16 30 -17 56 -29 58 -27 2 2 -21 17
-51 34 -76 41 -72 63 4 24 33 -16 63 -34 66 -40z m-425 40 c0 -6 -8 -13 -17
-16 -10 -3 -31 -12 -48 -20 -30 -14 -29 -14 18 -8 31 4 47 3 47 -5 0 -6 -7
-11 -15 -11 -8 0 -15 -4 -15 -10 0 -5 7 -7 15 -4 9 4 15 0 15 -9 0 -16 -16
-30 -37 -33 -6 -1 -28 -7 -48 -14 -20 -7 -39 -9 -42 -6 -13 13 9 35 42 42 19
3 38 11 42 17 4 7 0 8 -13 3 -10 -4 -34 -10 -51 -13 -38 -7 -46 13 -10 27 21
8 21 9 -5 9 -41 1 -36 29 7 37 19 3 38 10 41 15 7 13 74 11 74 -1z m768 -20
c7 0 12 7 12 15 0 18 11 19 33 3 15 -12 15 -22 -8 -133 -23 -111 -36 -309 -22
-332 3 -5 -1 -38 -9 -73 -13 -57 -28 -97 -66 -177 -6 -11 -8 -26 -4 -31 9 -15
-4 -42 -19 -42 -14 0 -28 48 -27 92 1 23 14 82 38 166 3 12 2 22 -3 22 -5 0
-14 -21 -21 -46 -15 -56 -41 -119 -47 -113 -5 5 34 202 60 304 10 39 33 100
52 136 41 83 41 102 2 130 -26 18 -29 26 -23 48 4 14 6 34 6 45 -1 17 0 17 17
2 10 -9 23 -16 29 -16z m-636 -16 c37 -26 47 -47 29 -58 -10 -6 -91 50 -91 62
0 10 11 22 19 22 3 0 22 -12 43 -26z m2251 -29 c93 -165 120 -456 64 -670 -96
-365 -268 -560 -597 -674 -61 -22 -256 -26 -347 -7 -153 31 -341 139 -441 255
-94 108 -176 250 -210 361 -18 57 -32 160 -32 232 0 60 3 69 26 87 15 12 32
21 38 20 6 0 1 -7 -11 -16 -21 -14 -23 -23 -23 -107 0 -135 57 -324 131 -435
61 -92 212 -229 305 -278 127 -66 336 -121 374 -98 15 9 -16 45 -39 45 -9 1
-32 10 -51 21 -19 11 -27 18 -18 15 43 -13 114 -16 128 -6 11 9 12 13 3 17
-25 10 -12 23 23 23 19 0 33 4 30 9 -3 5 20 19 52 32 250 100 421 362 441 679
l8 115 1 -95 c2 -128 -18 -226 -67 -339 -54 -124 -128 -218 -289 -365 l-43
-40 25 -13 c26 -14 35 -33 16 -33 -5 0 -10 -4 -10 -10 0 -39 177 53 277 144
61 56 137 147 162 193 9 18 9 28 -2 49 l-13 25 -29 -40 c-31 -46 -44 -48 -22
-4 8 15 17 39 18 52 7 43 -16 32 -40 -19 -31 -65 -54 -87 -36 -33 7 21 27 68
44 105 16 37 35 96 41 130 17 91 17 293 0 356 -13 50 -13 53 8 68 13 9 22 27
23 42 l1 27 8 -25 7 -25 11 25 c10 24 11 23 11 -13 1 -45 15 -42 26 5 l7 33
10 -30 c6 -16 11 -85 11 -153 1 -95 4 -120 13 -108 13 19 25 11 17 -11 -4 -11
-1 -14 8 -11 22 7 25 62 12 183 -17 158 -29 208 -65 283 -43 87 -42 86 -30 78
6 -3 22 -26 35 -51z m-2353 35 c0 -5 -5 -10 -11 -10 -5 0 -7 5 -4 10 3 6 8 10
11 10 2 0 4 -4 4 -10z m1453 -34 c26 -33 26 -56 0 -35 -10 9 -13 7 -13 -7 0
-11 -12 -27 -26 -37 l-24 -18 -15 35 c-21 49 -19 59 13 78 37 22 36 22 65 -16z
m-3533 2 c30 -5 96 -18 145 -29 50 -10 144 -26 210 -34 139 -19 369 -55 373
-60 2 -1 -4 -26 -14 -54 -16 -51 -16 -130 2 -175 6 -16 3 -18 -27 -13 -19 3
-97 14 -174 25 -353 51 -551 85 -637 109 -53 15 -63 23 -59 46 0 4 -4 7 -9 7
-11 0 -12 102 -1 140 4 14 14 24 21 22 7 -2 10 3 7 12 -3 8 -3 17 1 21 7 7 74
0 162 -17z m2710 -74 c-31 -142 -55 -238 -61 -249 -4 -5 -10 -27 -13 -49 -4
-21 -10 -36 -13 -33 -5 6 5 54 58 277 33 139 38 155 44 148 2 -2 -4 -44 -15
-94z m-475 -3 c-28 -56 -54 -71 -31 -18 37 88 51 111 54 89 2 -11 -8 -43 -23
-71z m965 72 c-1 -19 -50 -105 -50 -87 0 6 7 31 16 57 16 47 34 63 34 30z
m-1044 -23 c41 -29 56 -50 36 -50 -15 0 -92 59 -92 70 0 15 8 12 56 -20z
m2051 -14 c12 -24 25 -61 28 -82 5 -31 -1 -22 -29 41 -40 89 -39 85 -28 85 4
0 18 -20 29 -44z m-3907 24 c12 -8 9 -10 -12 -10 -16 0 -28 5 -28 10 0 13 20
13 40 0z m-510 -26 c-6 -14 -10 -49 -10 -77 -1 -48 -2 -50 -15 -33 -27 36 -13
136 20 136 11 0 13 -5 5 -26z m595 6 c-6 -10 -45 -1 -45 10 0 4 11 5 25 2 14
-2 23 -8 20 -12z m475 -15 c0 -28 -5 -38 -25 -47 -31 -14 -43 -4 -23 19 9 10
19 28 22 41 11 34 26 26 26 -13z m1570 -46 c0 -14 -17 -11 -77 16 -30 14 -58
24 -60 21 -5 -5 80 -46 96 -46 6 0 15 -9 20 -19 8 -14 7 -20 -4 -25 -8 -3 -15
-12 -15 -21 0 -8 -6 -15 -12 -15 -19 1 -121 64 -126 78 -6 19 12 14 59 -18 24
-16 51 -30 59 -30 8 0 -10 14 -40 32 -30 17 -58 35 -61 40 -4 6 0 23 8 39 l14
28 70 -35 c38 -19 69 -40 69 -45z m-254 -18 c-8 -50 20 -69 45 -30 13 19 16
19 44 4 97 -52 107 -63 74 -83 -26 -17 -60 -6 -191 59 -96 48 -119 69 -77 69
18 0 20 2 8 16 -22 27 8 33 56 10 38 -18 45 -25 41 -45z m-513 9 c43 -45 45
-55 16 -71 -24 -12 -39 0 -39 33 0 23 -27 48 -53 48 -19 0 -18 -2 9 -19 22
-13 33 -29 36 -51 6 -40 -9 -49 -23 -13 -12 33 -26 43 -59 43 -23 0 -22 -1 9
-18 51 -25 60 -62 26 -106 -55 -73 -77 -177 -56 -271 5 -22 2 -37 -13 -57 -21
-30 -17 -30 -166 -7 -113 18 -177 74 -195 171 l-7 38 85 -2 c75 -2 90 1 119
22 33 22 99 112 114 155 4 11 27 51 52 88 42 65 46 68 76 62 17 -4 47 -23 69
-45z m860 43 c-7 -2 -21 -2 -30 0 -10 3 -4 5 12 5 17 0 24 -2 18 -5z m709 -55
c13 -56 12 -65 -4 -97 -10 -19 -18 -42 -18 -49 0 -9 -6 -12 -15 -8 -8 3 -22 9
-30 12 -8 3 -15 1 -15 -5 0 -6 12 -16 26 -21 24 -9 25 -13 19 -53 -9 -54 -9
-53 -47 -63 l-33 -8 38 -3 c35 -4 38 -7 35 -31 -3 -28 -7 -29 -48 -17 -22 7
-23 6 -11 -9 7 -9 19 -16 26 -16 20 0 34 -23 41 -69 7 -43 7 -44 -19 -38 -14
4 -32 10 -41 13 -9 3 -16 1 -16 -5 0 -6 20 -16 44 -22 39 -10 46 -16 60 -53
20 -53 20 -52 -5 -88 -12 -16 -18 -32 -15 -36 7 -6 14 2 36 38 4 8 10 13 12
10 2 -3 16 -24 31 -47 l27 -42 -21 -36 c-12 -20 -18 -39 -14 -43 4 -4 10 -2
12 4 9 26 31 47 41 40 20 -12 13 -32 -13 -44 -14 -6 -25 -16 -25 -22 0 -15 8
-13 41 11 l29 20 25 -28 c30 -35 30 -38 3 -57 -15 -11 -17 -16 -8 -16 8 0 23
7 33 14 16 13 24 11 62 -12 25 -15 46 -34 49 -42 2 -8 7 -27 10 -42 9 -42 26
-34 19 9 -6 33 -4 36 13 29 10 -5 31 -13 47 -18 15 -6 34 -22 42 -37 14 -25
14 -25 15 -3 0 13 6 22 15 22 9 0 15 -9 15 -22 l0 -23 18 23 c14 17 26 23 48
20 45 -5 36 -30 -16 -46 -75 -22 -147 -19 -230 12 -117 42 -254 143 -300 219
-17 29 -43 72 -58 97 -96 156 -120 448 -44 535 19 21 31 48 35 79 7 49 41 126
57 126 5 0 15 -28 22 -62z m-1369 35 c2 -10 8 -26 12 -35 6 -16 0 -18 -53 -18
-45 0 -61 4 -66 16 -10 26 -7 32 22 42 44 17 79 14 85 -5z m161 -5 c-9 -28
-44 -57 -69 -58 -16 0 -21 6 -20 27 0 21 7 29 35 39 53 19 62 17 54 -8z
m-1212 -66 c30 -28 31 -30 15 -53 -21 -29 -22 -69 -2 -95 8 -10 15 -24 15 -29
0 -13 -53 -45 -75 -45 -44 0 -60 163 -21 223 23 34 28 34 68 -1z m295 1 c-48
-8 -18 -23 46 -24 34 0 71 -4 82 -8 19 -8 19 -8 -2 -19 -33 -18 -150 -12 -262
14 -38 8 -6 24 51 24 26 0 50 5 53 10 3 6 18 9 33 9 l27 -2 -28 -4z m103 -3
c0 -6 -11 -8 -27 -4 -40 10 -41 14 -5 14 18 0 32 -5 32 -10z m74 -5 c-7 -16
-49 -21 -59 -6 -3 5 7 12 22 14 16 2 31 5 35 6 4 0 5 -6 2 -14z m3026 -39 c14
-62 -3 -39 -25 34 -6 19 -4 22 5 14 6 -6 15 -28 20 -48z m-1185 0 c-5 -24 -17
-43 -36 -57 -17 -12 -29 -16 -29 -9 0 7 -7 9 -15 6 -9 -3 5 19 31 49 26 30 49
53 51 51 3 -2 1 -20 -2 -40z m-3334 -11 c22 -19 46 -35 54 -35 8 0 20 -20 29
-50 24 -81 113 -190 154 -190 7 0 12 -15 12 -35 0 -86 48 -138 148 -160 156
-34 158 -35 78 -51 -75 -15 -120 -9 -197 24 -143 62 -283 255 -315 432 -21
118 -21 118 37 65z m2409 -5 c36 -16 84 -34 106 -40 60 -15 92 -44 105 -97 11
-41 14 -44 37 -38 21 5 23 3 17 -12 -4 -10 -13 -40 -20 -68 -77 -300 -71 -287
-140 -313 -31 -12 -69 -22 -84 -22 -37 0 -93 20 -89 32 3 8 152 78 165 78 2 0
1 -5 -2 -10 -10 -16 -82 -50 -105 -50 -11 0 -20 -4 -20 -10 0 -25 72 -5 132
36 39 27 71 85 51 91 -7 3 -9 11 -6 19 9 25 -6 60 -39 93 -26 26 -40 31 -67
29 l-34 -3 -13 62 c-19 91 -45 143 -103 201 -28 28 -51 53 -51 56 0 14 102 -8
160 -34z m-298 -7 c30 -29 42 -29 35 -2 -4 16 -2 19 10 14 9 -3 20 -1 23 6 11
17 59 -12 109 -66 49 -54 87 -130 96 -197 l7 -47 -55 -25 c-99 -44 -130 -52
-134 -38 -6 17 -111 15 -143 -3 -44 -25 -102 -19 -145 15 -42 33 -88 39 -121
15 -21 -14 -22 -13 -28 32 -16 116 -2 176 54 247 51 63 70 71 176 71 82 0 95
-3 116 -22z m1367 -30 c15 -52 14 -63 -6 -63 -15 0 -15 -2 2 -14 18 -13 18
-15 2 -40 -10 -14 -23 -26 -30 -26 -9 0 -9 -2 0 -8 15 -9 5 -104 -11 -99 -14
5 -16 154 -2 182 5 11 10 29 11 40 4 56 6 65 15 65 5 0 14 -17 19 -37z m321
20 c85 -59 137 -203 116 -317 -9 -47 -66 -111 -112 -126 -30 -10 -41 -9 -79 9
-50 23 -58 36 -20 28 14 -2 24 -2 21 0 -3 3 14 19 37 37 62 48 66 69 32 178
-16 51 -36 109 -46 128 -33 70 -34 80 -2 80 16 0 40 -8 53 -17z m680 -23 c0
-11 -2 -20 -4 -20 -2 0 -6 9 -9 20 -3 11 -1 20 4 20 5 0 9 -9 9 -20z m-4338
-10 c29 -9 42 -21 66 -64 17 -29 42 -60 56 -70 26 -16 26 -17 9 -41 -10 -13
-24 -25 -31 -25 -37 -1 -152 146 -152 195 0 18 4 18 52 5z m173 -38 c97 -4
145 -12 145 -25 0 -7 9 -18 21 -25 18 -11 23 -11 35 5 7 10 14 13 14 7 0 -7
-8 -21 -17 -32 -16 -18 -24 -20 -78 -12 -44 7 -71 6 -99 -4 l-38 -13 -29 54
c-27 52 -38 80 -21 58 4 -5 34 -11 67 -13z m2920 8 c-3 -5 -12 -10 -18 -10 -7
0 -6 4 3 10 19 12 23 12 15 0z m-2594 -50 c35 0 39 -22 7 -44 -23 -16 -118
-23 -118 -8 0 4 6 20 13 36 10 23 16 26 41 22 16 -4 41 -6 57 -6z m102 -16
c11 -11 -27 -65 -41 -59 -8 3 -20 5 -28 5 -13 0 -12 5 3 30 16 28 50 40 66 24z
m140 -28 c18 -7 41 -23 51 -35 l19 -21 -34 1 c-55 1 -129 15 -141 27 -17 17 9
42 44 42 16 0 43 -6 61 -14z m-875 -74 c35 -72 107 -164 159 -203 37 -27 44
-46 12 -28 -66 35 -170 171 -208 272 -20 53 4 25 37 -41z m642 27 c46 -5 93
-12 105 -14 11 -3 103 -14 205 -25 248 -28 241 -27 273 -39 l28 -11 -21 -39
c-22 -44 -27 -140 -10 -187 6 -15 8 -29 5 -32 -8 -8 -384 44 -675 94 -193 33
-213 37 -217 51 -5 13 97 12 147 -1 14 -3 54 -2 90 2 l65 8 -50 9 c-34 5 -50
4 -53 -4 -2 -6 -10 -11 -18 -11 -9 0 -13 4 -9 9 7 12 -14 18 -90 27 -89 10
-105 18 -105 54 0 17 7 47 15 67 l15 36 86 -7 c47 -4 96 -11 107 -15 12 -5 51
-11 87 -14 36 -3 56 -4 45 -1 -11 3 -33 11 -50 19 -16 7 -43 16 -60 19 -16 3
-43 10 -60 15 -27 10 -25 10 15 5 25 -3 83 -10 130 -15z m2169 -36 c-7 -21
-14 -32 -16 -26 -3 7 1 30 8 50 7 21 14 32 16 26 3 -7 -1 -30 -8 -50z m-2486
35 c-24 -32 -35 -94 -24 -134 15 -55 15 -69 -3 -55 -21 17 -39 95 -31 131 4
18 16 41 26 51 21 21 47 27 32 7z m2174 -110 c29 -33 33 -50 17 -86 -14 -35
-35 -46 -224 -126 -91 -38 -105 -42 -95 -26 12 19 -6 69 -36 101 -16 17 -29
33 -29 34 0 2 24 11 53 21 28 9 70 25 92 34 185 80 191 81 222 48z m949 -5 c3
-16 7 -33 9 -40 7 -21 -14 -24 -24 -4 -14 25 -14 71 -1 71 5 0 12 -12 16 -27z
m-2122 -12 c24 -25 26 -32 16 -52 -8 -13 -10 -42 -7 -73 5 -50 4 -52 -34 -79
l-39 -29 -15 36 c-22 52 -19 154 5 194 24 40 38 40 74 3z m845 -35 c-12 -13
-139 -64 -139 -57 0 5 15 15 33 22 17 7 46 18 62 25 31 13 52 17 44 10z m-565
-46 c71 -11 150 -23 175 -25 57 -5 167 -24 201 -34 21 -6 24 -12 22 -39 -2
-20 5 -47 18 -69 l21 -35 -48 6 c-26 4 -93 15 -148 26 -55 10 -120 22 -145 26
-25 3 -56 12 -70 19 -14 7 -77 25 -140 40 -63 15 -121 29 -127 31 -7 2 -13 16
-13 32 0 60 15 61 254 22z m228 10 c10 0 18 -5 18 -11 0 -6 -7 -8 -16 -5 -9 3
-19 6 -24 6 -4 0 -11 8 -15 18 -5 14 -4 15 6 5 7 -7 21 -13 31 -13z m96 -18
c2 -7 -3 -12 -12 -12 -9 0 -16 7 -16 16 0 17 22 14 28 -4z m1122 3 c0 -8 -2
-15 -4 -15 -2 0 -11 -3 -20 -6 -10 -4 -16 -1 -16 9 0 14 13 24 33 26 4 1 7 -6
7 -14z m424 -1 c4 -9 4 -19 2 -22 -10 -9 -36 8 -36 23 0 20 26 19 34 -1z
m-1510 -9 c3 -8 1 -15 -4 -15 -6 0 -10 7 -10 15 0 8 2 15 4 15 2 0 6 -7 10
-15z m168 -27 c23 -18 40 -86 27 -109 -35 -67 -129 -38 -129 40 0 61 60 102
102 69z m766 -29 c2 -15 -5 -32 -18 -44 -11 -10 -20 -13 -20 -7 0 6 5 14 10
17 6 3 10 13 10 20 0 18 -23 9 -140 -59 -47 -28 -112 -64 -145 -81 -41 -21
-59 -36 -57 -47 3 -17 -6 -21 -66 -33 -86 -17 -148 -8 -236 34 -47 23 -90 41
-96 41 -5 0 -10 4 -10 9 0 14 143 80 155 71 6 -4 37 -14 70 -23 77 -21 70 -23
340 79 156 59 198 64 203 23z m615 -15 c30 -51 33 -64 14 -64 -16 0 -70 94
-60 104 12 11 18 6 46 -40z m-2098 6 c3 -6 -5 -10 -19 -10 -14 0 -28 5 -31 10
-3 6 5 10 19 10 14 0 28 -4 31 -10z m-835 -20 c-8 -6 -22 -10 -30 -9 -9 0 -5
6 10 14 27 14 44 10 20 -5z m2997 -72 c28 -26 30 -48 4 -48 -21 0 -55 45 -46
60 9 15 16 12 42 -12z m110 -71 c10 -7 7 -14 -11 -28 -31 -25 -35 -24 -68 8
l-28 27 22 12 c22 12 53 5 85 -19z m363 -192 c-14 -16 -40 -20 -40 -6 0 10 17
19 39 20 11 1 11 -2 1 -14z"/>
<path d="M3755 6231 c-33 -20 -75 -66 -75 -81 0 -16 21 -12 43 8 29 26 101 20
185 -17 74 -33 111 -38 143 -21 22 13 25 43 5 59 -11 9 -20 9 -35 2 -32 -17
-51 -13 -135 29 -43 22 -84 40 -90 40 -6 0 -24 -8 -41 -19z"/>
<path d="M3803 6060 c-48 -25 -67 -49 -83 -110 -17 -62 1 -120 51 -165 34 -31
46 -35 92 -35 41 0 63 6 98 28 l44 29 -1 64 c-1 68 -31 154 -64 184 -30 27
-89 29 -137 5z m123 -35 c56 -63 74 -184 32 -222 -31 -28 -62 -43 -89 -43
l-22 0 21 23 c37 39 53 105 33 136 -8 12 -12 12 -25 2 -9 -7 -23 -11 -31 -7
-20 7 -19 43 1 54 28 15 6 32 -42 32 -57 0 -54 15 6 47 52 28 74 23 116 -22z
m-125 -183 c18 -2 33 4 45 20 32 40 44 43 44 10 0 -30 -36 -92 -57 -99 -17 -6
-92 65 -99 93 -10 41 8 50 25 13 11 -24 24 -35 42 -37z"/>
<path d="M4135 5849 c-4 -6 -5 -13 -2 -16 7 -7 27 6 27 18 0 12 -17 12 -25 -2z"/>
<path d="M4240 5817 c0 -3 5 -18 12 -32 8 -19 8 -31 -1 -51 -9 -20 -9 -25 1
-22 20 7 22 82 3 98 -8 7 -15 10 -15 7z"/>
<path d="M3142 5768 c-15 -15 -16 -58 -2 -58 6 0 10 6 10 14 0 23 25 36 57 30
35 -7 60 -41 44 -57 -6 -6 -11 -30 -11 -54 0 -35 6 -50 36 -83 35 -39 36 -40
13 -40 -23 -1 -23 -1 -5 -15 28 -21 38 -9 31 39 -5 33 -2 47 14 67 l20 26 -21
19 c-11 11 -38 43 -60 72 -35 47 -42 52 -76 52 -21 0 -43 -5 -50 -12z m147
-142 c-14 -16 -10 -29 6 -22 18 7 20 -8 2 -22 -17 -15 -44 25 -28 41 6 6 11
20 12 32 0 20 0 20 9 0 4 -11 4 -24 -1 -29z"/>
<path d="M4042 5768 c-7 -7 -11 -30 -11 -52 l1 -41 8 35 c4 19 11 43 15 53 8
20 4 22 -13 5z"/>
<path d="M3181 5736 c-7 -8 -11 -23 -8 -33 3 -14 6 -12 16 11 13 33 9 43 -8
22z"/>
<path d="M3605 5719 c-12 -18 1 -20 36 -5 l34 15 -32 1 c-17 0 -35 -5 -38 -11z"/>
<path d="M4098 5713 c-31 -8 -19 -22 17 -20 19 1 33 7 32 12 -4 12 -24 15 -49
8z"/>
<path d="M4398 5668 c-5 -36 -54 -56 -166 -67 -77 -8 -123 -19 -185 -45 -122
-50 -184 -67 -228 -60 -52 9 -68 28 -44 54 20 22 13 42 -7 22 -7 -7 -20 -12
-29 -12 -21 0 -49 -36 -49 -62 0 -22 26 -24 34 -3 5 14 11 13 48 -6 55 -28 99
-22 241 36 83 33 134 48 202 56 122 14 157 24 185 54 18 19 26 22 37 13 7 -6
17 -8 21 -4 7 8 -33 46 -48 46 -5 0 -10 -10 -12 -22z"/>
<path d="M4154 5449 c-29 -8 -87 -59 -68 -59 6 0 15 5 21 11 8 8 15 3 27 -19
8 -16 22 -32 29 -35 17 -6 77 54 77 77 0 9 5 16 10 16 6 0 10 5 10 10 0 12
-63 12 -106 -1z"/>
<path d="M1840 5710 c0 -5 11 -10 25 -10 14 0 25 5 25 10 0 6 -11 10 -25 10
-14 0 -25 -4 -25 -10z"/>
<path d="M3300 5095 c0 -31 11 -65 21 -65 10 0 2 45 -12 70 -7 12 -8 11 -9 -5z"/>
<path d="M2085 5087 c-13 -10 -15 -16 -6 -21 12 -8 41 10 41 25 0 13 -13 11
-35 -4z"/>
<path d="M2515 4709 c-4 -6 -5 -12 -2 -15 2 -3 7 2 10 11 7 17 1 20 -8 4z"/>
<path d="M2440 5480 c0 -5 5 -10 10 -10 6 0 10 5 10 10 0 6 -4 10 -10 10 -5 0
-10 -4 -10 -10z"/>
<path d="M4446 5025 c8 -37 14 -45 14 -19 0 10 -5 26 -10 34 -8 11 -9 7 -4
-15z"/>
<path d="M4460 4885 c0 -8 5 -15 10 -15 6 0 10 7 10 15 0 8 -4 15 -10 15 -5 0
-10 -7 -10 -15z"/>
<path d="M5295 5039 c-4 -6 -5 -12 -2 -15 2 -3 7 2 10 11 7 17 1 20 -8 4z"/>
<path d="M3750 4305 c-13 -16 -6 -50 9 -41 11 7 21 56 11 56 -4 0 -13 -7 -20
-15z"/>
<path d="M5636 4553 c11 -26 11 -82 -1 -85 -5 -1 -12 7 -13 18 -7 33 -18 36
-65 15 -37 -17 -44 -25 -40 -41 6 -24 19 -34 27 -21 4 6 18 6 37 1 16 -5 37
-6 46 -3 13 5 15 1 10 -25 -9 -43 9 -50 31 -13 9 17 25 31 34 31 36 0 51 75
21 102 -15 13 -75 38 -91 38 -2 0 -1 -8 4 -17z m-29 -85 c-3 -8 -6 -5 -6 6 -1
11 2 17 5 13 3 -3 4 -12 1 -19z"/>
<path d="M2615 4560 c-5 -8 -2 -17 8 -25 10 -7 17 -17 17 -22 0 -13 39 -48 45
-41 8 7 -16 58 -27 58 -4 0 -8 7 -8 16 0 8 -4 13 -9 10 -5 -4 -11 -1 -13 6 -3
9 -7 8 -13 -2z"/>
<path d="M2700 4490 c0 -5 5 -10 11 -10 5 0 7 5 4 10 -3 6 -8 10 -11 10 -2 0
-4 -4 -4 -10z"/>
<path d="M4799 4150 c-15 -11 -57 -33 -95 -50 -61 -27 -64 -30 -29 -24 44 7
156 63 163 82 5 17 -9 14 -39 -8z"/>
<path d="M5022 4170 c0 -14 2 -19 5 -12 2 6 2 18 0 25 -3 6 -5 1 -5 -13z"/>
<path d="M5138 4223 l-37 -37 32 -11 c17 -5 32 -16 32 -22 0 -24 19 -18 29 8
9 27 1 99 -12 99 -4 0 -24 -17 -44 -37z"/>
<path d="M5530 4220 c0 -11 27 -20 60 -20 15 0 33 -7 40 -16 16 -18 65 -15 65
5 0 8 -13 18 -30 22 -47 11 -135 17 -135 9z"/>
<path d="M4951 3703 c0 -6 -4 -20 -7 -30 -5 -14 -4 -15 5 -7 7 7 11 20 8 30
-3 11 -5 14 -6 7z"/>
<path d="M1925 3915 c3 -14 7 -36 10 -50 3 -14 1 -25 -5 -25 -5 0 -10 -5 -10
-11 0 -6 6 -9 13 -7 19 7 27 87 10 104 -20 20 -24 18 -18 -11z"/>
<path d="M4017 3863 c-12 -11 -8 -23 8 -23 9 0 18 -7 21 -15 8 -21 24 -19 24
3 0 31 -35 54 -53 35z"/>
<path d="M3901 3776 c-10 -12 -8 -19 8 -35 32 -32 59 -25 40 10 -6 13 -6 19 1
19 5 0 10 5 10 10 0 15 -46 12 -59 -4z"/>
<path d="M4042 3728 c-14 -14 -16 -38 -4 -38 10 0 42 33 42 43 0 11 -25 8 -38
-5z"/>
<path d="M4415 3651 c3 -5 -5 -17 -17 -25 -12 -9 -19 -19 -15 -22 9 -10 58 36
51 47 -3 5 -10 9 -15 9 -6 0 -8 -4 -4 -9z"/>
<path d="M4666 3728 c-12 -40 -12 -59 0 -75 13 -17 13 -17 14 0 0 10 4 16 8
13 4 -2 19 4 32 14 20 16 23 22 14 37 -13 22 -62 30 -68 11z"/>
<path d="M3583 3670 c-3 -11 -9 -20 -14 -20 -5 0 -9 -4 -9 -10 0 -20 19 -9 34
20 8 17 10 30 4 30 -5 0 -12 -9 -15 -20z"/>
<path d="M3615 3609 c-4 -6 -5 -12 -2 -15 2 -3 7 2 10 11 7 17 1 20 -8 4z"/>
<path d="M3540 3489 c3 -33 3 -89 -1 -124 -11 -111 -63 -153 -201 -164 -43 -3
-79 -10 -81 -16 -5 -22 185 11 228 39 35 23 65 74 65 111 0 17 4 44 9 60 8 30
-7 155 -19 155 -3 0 -3 -27 0 -61z"/>
<path d="M3582 3375 c-3 -51 -30 -125 -60 -159 -14 -15 -14 -18 -2 -14 8 2 28
28 43 56 24 43 27 61 24 109 l-3 58 -2 -50z"/>
<path d="M3028 3329 c-41 -23 -4 -72 72 -98 20 -6 87 -11 150 -12 169 0 257
32 248 93 l-3 23 -225 2 c-134 1 -232 -2 -242 -8z"/>
<path d="M4088 3603 c7 -3 16 -2 19 1 4 3 -2 6 -13 5 -11 0 -14 -3 -6 -6z"/>
<path d="M4060 3550 c-11 -7 -5 -10 23 -10 20 0 37 5 37 10 0 13 -40 13 -60 0z"/>
<path d="M4018 3533 c7 -3 16 -2 19 1 4 3 -2 6 -13 5 -11 0 -14 -3 -6 -6z"/>
<path d="M4078 3493 c6 -2 18 -2 25 0 6 3 1 5 -13 5 -14 0 -19 -2 -12 -5z"/>
<path d="M4070 3444 l-35 -14 40 6 c22 3 44 10 50 15 13 13 -13 9 -55 -7z"/>
<path d="M4145 3410 c-3 -5 -2 -10 4 -10 5 0 13 5 16 10 3 6 2 10 -4 10 -5 0
-13 -4 -16 -10z"/>
<path d="M4075 3390 c-25 -11 1 -11 35 0 20 6 21 8 5 8 -11 0 -29 -3 -40 -8z"/>
<path d="M3866 3485 c-11 -8 -15 -15 -9 -15 6 0 16 7 23 15 16 19 11 19 -14 0z"/>
<path d="M4616 3471 c16 -16 107 -61 112 -56 3 3 3 6 1 8 -2 1 -27 14 -55 30
-52 27 -76 35 -58 18z"/>
<path d="M6101 3204 c-19 -13 -31 -24 -27 -24 13 0 66 34 66 42 0 10 1 11 -39
-18z"/>
<path d="M6234 2999 c-3 -6 -17 -8 -30 -5 -23 6 -23 5 -12 -14 7 -11 17 -19
22 -17 11 4 41 47 33 47 -3 0 -9 -5 -13 -11z"/>
<path d="M6195 2610 c-9 -15 -1 -23 21 -18 15 3 16 4 1 16 -11 9 -17 10 -22 2z"/>
<path d="M6231 2560 c9 -14 24 -40 33 -58 10 -19 20 -32 23 -29 6 7 -45 94
-60 104 -7 4 -5 -4 4 -17z"/>
<path d="M6150 2531 c0 -5 4 -12 9 -16 5 -3 12 -19 16 -36 4 -17 9 -28 12 -25
7 6 -16 74 -28 81 -5 4 -9 2 -9 -4z"/>
<path d="M6003 2416 c10 -20 14 -22 20 -10 10 17 1 34 -18 34 -10 0 -11 -5 -2
-24z"/>
<path d="M6190 2435 c0 -5 5 -17 10 -25 5 -8 10 -10 10 -5 0 6 -5 17 -10 25
-5 8 -10 11 -10 5z"/>
<path d="M6212 2370 c0 -14 2 -19 5 -12 2 6 2 18 0 25 -3 6 -5 1 -5 -13z"/>
<path d="M5991 2361 c-9 -6 -10 -11 -2 -15 6 -4 9 -19 7 -34 -2 -15 -1 -19 1
-9 6 23 26 22 48 -3 10 -11 23 -20 29 -20 6 0 -4 12 -22 26 -19 15 -37 35 -40
45 -5 12 -12 15 -21 10z"/>
<path d="M5911 2324 c0 -11 3 -14 6 -6 3 7 2 16 -1 19 -3 4 -6 -2 -5 -13z"/>
<path d="M6220 2320 c0 -5 5 -10 10 -10 6 0 10 5 10 10 0 6 -4 10 -10 10 -5 0
-10 -4 -10 -10z"/>
<path d="M5901 2264 c0 -11 3 -14 6 -6 3 7 2 16 -1 19 -3 4 -6 -2 -5 -13z"/>
<path d="M5791 2254 c0 -11 3 -14 6 -6 3 7 2 16 -1 19 -3 4 -6 -2 -5 -13z"/>
<path d="M2718 3243 c7 -3 16 -2 19 1 4 3 -2 6 -13 5 -11 0 -14 -3 -6 -6z"/>
<path d="M4577 3199 c7 -7 15 -10 18 -7 3 3 -2 9 -12 12 -14 6 -15 5 -6 -5z"/>
<path d="M2105 3200 c40 -9 112 -13 104 -6 -2 2 -35 6 -74 9 -54 4 -61 4 -30
-3z"/>
<path d="M2011 3036 c11 -9 69 -14 69 -6 0 6 -16 10 -37 10 -20 0 -34 -2 -32
-4z"/>
<path d="M2130 3018 c0 -4 16 -8 35 -8 19 0 35 2 35 4 0 2 -16 6 -35 8 -19 2
-35 0 -35 -4z"/>
<path d="M2238 3003 c6 -2 18 -2 25 0 6 3 1 5 -13 5 -14 0 -19 -2 -12 -5z"/>
<path d="M3690 3030 c20 -13 33 -13 25 0 -3 6 -14 10 -23 10 -15 0 -15 -2 -2
-10z"/>
<path d="M3600 2748 c-15 -6 -63 -8 -119 -4 -110 7 -112 -5 -5 -35 72 -20 140
-24 162 -10 15 9 13 53 -3 57 -5 1 -21 -2 -35 -8z"/>
<path d="M3550 2650 c66 -23 84 -24 98 -7 8 10 2 12 -31 13 -23 0 -60 3 -82 7
-34 6 -32 4 15 -13z"/>
<path d="M3940 3120 c-18 -12 -2 -12 25 0 13 6 15 9 5 9 -8 0 -22 -4 -30 -9z"/>
<path d="M4476 2898 c29 -47 52 -76 57 -72 14 14 -32 84 -56 84 -4 0 -5 -6 -1
-12z"/>
<path d="M3991 2976 c-6 -7 -8 -21 -5 -30 9 -24 58 -17 62 8 6 31 -36 48 -57
22z m39 -22 c0 -17 -22 -14 -28 4 -2 7 3 12 12 12 9 0 16 -7 16 -16z"/>
<path d="M4150 2931 c0 -5 7 -16 15 -25 8 -8 15 -26 15 -40 0 -14 5 -28 10
-31 23 -14 2 65 -25 91 -8 9 -15 11 -15 5z"/>
<path d="M3924 2880 c-42 -17 -64 -58 -64 -122 0 -49 4 -63 24 -83 32 -32 69
-40 107 -24 36 14 68 74 50 92 -8 8 -11 4 -11 -11 0 -61 -101 -98 -134 -50
-25 36 -19 42 15 14 17 -14 34 -26 38 -26 18 0 44 28 38 42 -6 16 -81 33 -99
22 -8 -5 -9 8 -5 42 4 36 12 54 32 71 33 29 52 29 82 1 28 -26 31 -6 3 22 -21
21 -42 24 -76 10z"/>
<path d="M3747 2846 c-14 -35 23 -67 50 -45 8 7 13 22 11 33 -4 26 -52 35 -61
12z m51 -13 c-2 -10 -10 -18 -18 -18 -8 0 -16 8 -18 18 -2 12 3 17 18 17 15 0
20 -5 18 -17z"/>
<path d="M4199 2714 c1 -24 7 -44 12 -44 14 0 11 66 -4 78 -9 8 -11 1 -8 -34z"/>
<path d="M4110 2721 c-7 -15 -6 -24 6 -36 9 -9 21 -14 27 -12 18 6 31 33 24
51 -9 22 -44 20 -57 -3z m40 -11 c0 -11 -7 -20 -15 -20 -15 0 -21 21 -8 33 12
13 23 7 23 -13z"/>
<path d="M2236 2897 c3 -10 9 -15 12 -12 3 3 0 11 -7 18 -10 9 -11 8 -5 -6z"/>
<path d="M2633 2583 c15 -2 37 -2 50 0 12 2 0 4 -28 4 -27 0 -38 -2 -22 -4z"/>
<path d="M1462 6504 c3 -36 5 -37 83 -67 88 -33 91 -34 82 -43 -3 -3 -47 8
-96 26 l-91 33 0 36 0 36 -80 -80 -81 -80 34 -3 c30 -3 36 -9 69 -76 l37 -74
-32 -11 -32 -11 38 6 c46 6 49 -11 4 -23 l-34 -8 14 -33 c13 -33 14 -33 38
-18 13 9 29 16 35 16 6 0 28 -35 47 -77 29 -62 36 -90 37 -139 l0 -61 50 60
c28 33 59 70 69 83 10 13 28 24 38 24 16 0 4 -18 -51 -81 -39 -44 -69 -83 -66
-86 2 -3 20 12 38 33 18 22 52 60 76 85 23 25 42 49 42 53 0 3 -14 6 -30 6
-49 0 -96 25 -124 66 -14 21 -26 42 -26 46 0 5 25 8 56 8 l56 0 -7 40 c-7 43
1 84 16 75 5 -4 10 -32 11 -63 l1 -57 6 57 6 57 55 -22 c53 -21 55 -23 52 -56
l-4 -35 62 55 c87 77 108 91 124 87 8 -2 -19 -31 -66 -72 -43 -37 -77 -70 -74
-73 2 -3 46 30 96 74 l91 78 -73 6 c-55 5 -93 15 -152 43 l-79 37 36 26 c21
14 36 27 35 29 -11 10 -108 40 -108 33 0 -4 18 -14 41 -20 l40 -13 -31 -29
c-17 -16 -30 -31 -28 -33 2 -2 51 -24 108 -48 58 -25 95 -46 83 -46 -12 0 -67
19 -122 42 l-100 42 26 28 c15 15 24 30 22 33 -11 11 -79 35 -79 28 0 -5 -4
-14 -9 -22 -7 -11 -23 -8 -85 15 -73 28 -76 30 -76 62 0 17 -5 32 -11 32 -6 0
-9 -15 -7 -36z m-3 -220 l33 -70 53 4 c32 3 55 0 59 -7 5 -7 -9 -12 -43 -13
-28 -1 -59 -2 -68 -2 -12 -1 -29 23 -54 74 -42 83 -45 93 -26 88 6 -2 27 -35
46 -74z m77 33 c65 -22 69 -26 72 -56 l3 -32 -56 3 -56 3 -24 53 c-13 28 -21
52 -16 52 4 0 38 -11 77 -23z m18 -213 c16 -26 45 -56 63 -67 39 -23 37 -32
-5 -22 -33 7 -58 31 -90 88 -26 44 -26 47 -9 47 6 0 25 -21 41 -46z"/>
<path d="M6338 6512 c-32 -9 -58 -19 -58 -23 0 -7 150 28 159 37 9 9 -47 1
-101 -14z"/>
<path d="M6566 6425 l6 -50 -62 -52 c-58 -50 -63 -52 -83 -38 -22 16 -87 21
-87 7 0 -4 16 -14 35 -21 19 -7 35 -19 35 -27 0 -18 -4 -18 -41 2 -17 8 -35
14 -41 12 -6 -2 3 -10 20 -17 18 -8 32 -17 32 -21 0 -5 -28 -34 -62 -64 -60
-54 -65 -56 -103 -50 l-40 6 85 -88 c47 -49 117 -128 155 -176 38 -49 73 -88
77 -88 4 0 8 12 8 28 0 15 9 42 20 60 11 18 20 35 20 37 0 3 -22 5 -48 5 -38
0 -58 6 -89 29 -23 16 -48 40 -57 53 -15 21 -15 24 3 38 11 8 45 35 76 59 l56
44 34 -33 c19 -19 35 -29 35 -24 0 6 -16 25 -35 44 l-35 34 -25 -20 c-13 -10
-49 -39 -80 -63 -36 -29 -59 -41 -66 -34 -6 6 23 35 82 83 l92 75 42 -49 43
-48 -14 -44 -13 -45 42 31 c23 16 56 41 72 55 l30 24 -41 1 c-31 0 -47 7 -67
28 -15 15 -27 31 -27 34 0 3 24 26 54 52 l54 46 37 -46 c21 -25 44 -63 51 -83
12 -32 13 -33 14 -10 0 24 -37 86 -83 136 l-19 22 -61 -49 c-43 -35 -64 -46
-72 -39 -10 11 12 33 93 96 l33 26 40 -39 c22 -21 52 -58 66 -82 23 -39 25
-47 14 -81 -6 -21 -11 -40 -11 -42 0 -2 35 -4 79 -4 l79 0 -31 40 c-63 80
-180 216 -252 292 l-74 78 5 -50z"/>
<path d="M1019 6051 c-78 -106 -77 -104 -22 -82 l49 19 129 -84 c137 -89 190
-132 200 -165 9 -27 -38 -121 -76 -154 -17 -14 -43 -25 -60 -25 -23 0 -244
107 -343 166 -12 7 -22 28 -25 55 l-7 44 -25 -40 c-14 -22 -43 -71 -64 -109
-32 -57 -35 -68 -19 -62 71 30 61 32 219 -43 83 -40 168 -76 191 -81 61 -14
104 2 157 59 88 94 120 199 78 253 -11 13 -87 69 -170 124 l-150 99 -3 51 -3
52 -56 -77z"/>
<path d="M1100 6082 l0 -49 88 -58 c207 -137 252 -179 252 -238 0 -36 -55
-138 -103 -193 -33 -37 -36 -44 -15 -30 15 10 48 49 74 87 41 59 48 78 52 128
4 53 2 61 -27 93 -17 20 -94 78 -171 129 l-140 94 2 43 c2 23 0 42 -4 42 -5 0
-8 -22 -8 -48z"/>
<path d="M6170 6077 c0 -5 40 -53 88 -107 49 -54 118 -137 153 -184 53 -70 69
-85 92 -86 22 0 27 4 27 23 0 13 7 45 16 71 9 26 14 49 11 52 -4 5 -21 -44
-43 -123 -8 -28 -33 -7 -107 90 -80 105 -236 278 -237 264z"/>
<path d="M6620 6030 c-78 -59 -95 -90 -19 -35 30 21 64 45 76 54 22 16 30 32
16 30 -5 0 -37 -22 -73 -49z"/>
<path d="M6790 6034 c60 -8 130 -8 130 -1 0 4 -35 6 -77 6 -43 -1 -67 -3 -53
-5z"/>
<path d="M6980 5920 l0 -39 -187 -112 -187 -111 -33 16 c-18 9 -33 14 -33 11
0 -2 24 -42 54 -87 30 -46 83 -136 118 -200 l65 -117 16 33 c8 19 30 50 47 70
l32 36 -48 0 c-31 0 -60 7 -78 19 -35 23 -90 101 -79 112 5 5 91 53 192 108
182 98 184 99 218 85 18 -8 33 -10 33 -5 0 6 -17 15 -39 22 -38 11 -41 10
-226 -91 -102 -56 -189 -100 -191 -97 -5 5 50 37 285 166 l93 52 45 -15 45
-15 -14 22 c-8 12 -37 57 -64 99 -27 43 -52 78 -56 78 -5 0 -8 -18 -8 -40z"/>
<path d="M891 5814 c0 -16 5 -37 12 -46 6 -9 80 -53 162 -97 107 -58 160 -81
185 -81 54 0 64 15 12 16 -39 1 -73 15 -198 85 -139 77 -152 86 -162 119 l-9
35 -2 -31z"/>
<path d="M6522 5638 c62 -96 124 -199 173 -291 32 -60 64 -111 72 -114 22 -8
41 -55 64 -150 36 -153 97 -251 182 -292 77 -38 161 -21 185 36 12 28 12 28
-5 7 -45 -54 -125 -60 -194 -15 -76 51 -117 121 -155 267 -13 53 -29 105 -34
115 -6 10 -10 24 -10 31 1 25 28 -38 45 -102 33 -134 56 -188 98 -236 47 -53
88 -74 148 -74 33 0 47 6 74 33 45 45 52 98 31 220 -22 128 -21 172 4 197 11
11 31 20 44 20 27 0 80 -40 98 -73 7 -15 1 -11 -21 11 -50 49 -103 39 -116
-23 l-7 -30 21 33 c25 39 53 41 86 6 47 -51 61 -182 22 -209 -18 -13 -15 -15
39 -30 33 -9 69 -20 82 -26 34 -13 35 -12 13 19 -11 15 -29 70 -40 122 -23
113 -48 174 -91 224 -41 46 -79 66 -125 66 -109 0 -148 -88 -110 -245 8 -33
14 -90 15 -126 0 -57 -4 -70 -25 -93 -92 -100 -245 121 -179 260 9 19 25 39
35 45 29 15 23 29 -13 29 -47 0 -108 11 -108 20 0 4 11 24 25 44 14 20 25 42
25 49 0 7 -15 -10 -33 -38 -17 -27 -35 -51 -39 -53 -5 -2 -8 -10 -8 -18 0 -34
-34 6 -84 101 -68 129 -177 305 -189 305 -5 0 -3 -10 5 -22z"/>
<path d="M4768 5613 c12 -2 32 -2 45 0 12 2 2 4 -23 4 -25 0 -35 -2 -22 -4z"/>
<path d="M722 5482 c9 -24 84 -132 91 -132 5 0 -1 15 -12 33 -12 17 -32 49
-44 69 -12 21 -26 38 -30 38 -5 0 -7 -4 -5 -8z"/>
<path d="M680 5446 c-5 -15 -10 -29 -10 -31 0 -2 -23 -41 -52 -87 -28 -45 -60
-108 -71 -138 -26 -72 -28 -170 -4 -232 63 -164 294 -188 439 -47 37 36 58 74
118 211 67 154 92 199 105 186 3 -3 -10 -38 -29 -79 -77 -166 -134 -303 -114
-278 11 15 44 82 72 150 29 68 65 148 80 178 24 47 25 53 9 47 -77 -30 -95
-29 -184 8 -75 32 -88 41 -97 69 -8 27 -10 28 -11 9 -2 -42 17 -58 111 -97 51
-21 88 -40 82 -42 -5 -2 -52 14 -104 35 -94 38 -94 38 -106 83 l-11 44 -42
-90 c-24 -49 -56 -124 -73 -165 -31 -78 -47 -105 -45 -74 3 28 -25 23 -42 -8
-13 -22 -13 -29 -2 -42 16 -20 45 -21 60 -2 6 7 29 55 50 107 23 54 46 95 55
97 12 3 8 -15 -19 -80 -19 -46 -44 -95 -55 -110 -11 -16 -17 -28 -12 -28 18 0
40 36 72 115 18 44 36 84 40 88 5 6 185 -55 198 -68 2 -2 -12 -37 -32 -78 -30
-62 -43 -78 -77 -96 -22 -12 -60 -24 -83 -27 -50 -7 -151 17 -210 49 -86 46
-97 144 -29 234 30 39 32 45 13 32 -40 -26 -70 -95 -70 -157 0 -52 2 -58 43
-97 74 -70 228 -98 311 -56 37 19 38 19 21 1 -53 -59 -192 -65 -293 -14 -101
52 -129 157 -71 270 31 61 68 87 129 94 l50 5 -45 64 c-57 81 -53 78 -65 47z"/>
<path d="M7057 5283 c-12 -11 -8 -66 13 -186 14 -83 17 -124 10 -148 -9 -31
-8 -32 5 -15 20 26 19 51 -5 186 -12 62 -18 126 -15 142 7 28 4 34 -8 21z"/>
<path d="M6931 5175 c-21 -28 -38 -91 -27 -102 3 -4 6 5 6 19 0 14 11 42 25
63 30 44 27 59 -4 20z"/>
<path d="M7310 4956 c0 -7 152 -57 157 -52 6 5 -13 14 -91 42 -37 14 -66 18
-66 10z"/>
<path d="M5018 1560 c-77 -23 -125 -98 -113 -177 9 -60 45 -99 108 -117 29 -9
84 -24 124 -36 75 -21 107 -47 120 -98 16 -64 -46 -122 -129 -122 -86 0 -147
40 -172 114 l-13 36 -39 -77 -39 -78 60 -1 c33 0 98 -6 145 -13 101 -16 152
-6 204 39 45 40 60 79 54 141 -4 40 -12 57 -39 85 -33 34 -72 50 -208 84 -50
13 -101 58 -101 89 0 54 51 101 110 101 33 0 96 -25 106 -42 4 -5 -8 -3 -24 6
-47 24 -114 21 -140 -7 -35 -38 -25 -94 21 -118 19 -10 18 -8 -5 16 -34 34
-35 59 -3 90 32 33 81 33 129 0 21 -14 35 -21 31 -15 -3 5 -4 10 -1 10 3 0 12
-15 20 -32 l14 -33 12 32 c6 17 20 49 31 69 10 21 18 38 16 39 -6 4 -205 25
-227 24 -14 0 -37 -4 -52 -9z"/>
<path d="M3463 1532 l27 -28 0 -231 0 -231 -31 -26 -31 -26 105 0 c80 0 107
-3 117 -15 10 -12 -3 -15 -97 -18 l-108 -3 118 -2 c64 -1 117 2 117 6 0 5 -11
19 -25 32 -14 13 -25 20 -25 17 0 -4 -11 0 -25 9 -23 15 -25 23 -25 88 l0 72
50 55 c59 64 67 48 10 -20 -38 -45 -40 -51 -40 -113 0 -46 4 -69 15 -78 9 -8
15 -9 15 -2 0 6 -4 14 -10 17 -5 3 -10 32 -10 65 0 57 12 80 75 149 2 2 29
-47 59 -107 l56 -111 -28 -20 -27 -20 121 -1 c94 0 124 -3 134 -15 10 -12 -4
-15 -112 -18 l-123 -3 145 -2 145 -2 -25 20 c-14 11 -40 27 -59 37 -28 15 -46
44 -112 175 -43 87 -79 164 -79 171 0 17 117 132 155 151 17 9 23 16 15 16
-25 0 -72 -37 -131 -102 l-57 -63 85 -168 c106 -214 80 -206 -32 10 l-84 159
74 81 c42 45 93 90 117 102 l43 21 -120 0 c-112 -1 -118 -2 -92 -16 43 -23 37
-61 -24 -136 -28 -35 -63 -78 -78 -95 -14 -18 -29 -33 -33 -33 -5 0 -8 46 -8
103 0 97 1 105 25 127 14 13 23 26 20 28 -3 3 -16 -5 -30 -18 -24 -23 -25 -28
-25 -146 0 -71 -4 -125 -10 -129 -6 -4 -10 40 -10 126 l0 133 33 27 32 28
-104 1 -105 0 27 -28z"/>
<path d="M4079 1534 l31 -26 0 -233 0 -233 -31 -26 -31 -26 105 0 c80 0 107
-3 117 -15 10 -12 -3 -15 -97 -18 l-108 -3 125 -2 124 -2 -37 38 -37 38 0 234
c0 228 1 234 22 259 18 20 16 20 -10 -4 l-33 -29 3 -232 c2 -182 0 -230 -9
-227 -10 4 -13 61 -13 236 l0 231 32 33 32 33 -108 0 -108 0 31 -26z"/>
<path d="M4360 1541 c5 -11 15 -23 20 -26 6 -4 10 -97 10 -245 l0 -238 -27
-22 -28 -21 145 4 c128 3 152 6 194 26 93 45 132 138 124 293 -3 69 -9 93 -32
132 -52 89 -126 116 -313 116 -100 0 -103 -1 -93 -19z m250 -43 c64 -33 84
-78 88 -200 6 -171 -42 -264 -142 -275 l-46 -6 0 231 0 231 43 4 42 4 -47 1
-48 2 0 -235 c0 -150 -4 -235 -10 -235 -6 0 -10 90 -10 250 l0 250 43 0 c25 0
61 -10 87 -22z"/>
<path d="M2810 1488 c-17 -91 -64 -207 -110 -272 -22 -31 -40 -61 -40 -66 0
-6 54 -10 130 -10 108 0 130 -3 130 -15 0 -12 -23 -15 -127 -18 l-128 -3 128
-2 127 -2 0 -34 c0 -26 -7 -39 -27 -55 l-28 -20 96 -1 c72 0 100 -4 109 -15
10 -12 -2 -15 -92 -18 l-103 -3 113 -2 c61 -1 112 2 112 6 0 5 -13 21 -30 37
-24 23 -30 38 -32 74 l-1 46 -4 -43 c-3 -26 1 -50 9 -59 10 -13 8 -13 -14 1
-25 16 -28 24 -28 72 0 53 0 54 30 54 25 0 30 -4 30 -25 0 -32 26 -43 48 -22
23 24 3 63 -37 72 l-30 6 -4 122 -3 122 -2 -122 c-2 -102 -5 -123 -17 -123
-13 0 -15 21 -15 130 l0 130 -40 -37 -40 -38 0 -92 0 -93 -81 0 -81 0 47 53
c47 53 140 227 151 282 3 17 -10 -7 -29 -52 -51 -122 -168 -291 -195 -282 -7
2 11 34 44 79 51 67 132 219 149 278 6 21 4 22 -48 22 l-54 0 -13 -62z"/>
<path d="M5290 1470 c-18 -38 -32 -72 -29 -75 3 -2 21 29 40 70 19 41 32 75
29 75 -3 0 -21 -31 -40 -70z"/>
<path d="M4778 1469 c33 -38 52 -110 52 -199 0 -162 -58 -257 -182 -295 -24
-8 -37 -14 -29 -14 64 -3 149 57 188 133 23 43 28 67 31 153 5 118 -12 185
-56 224 l-27 24 23 -26z"/>
<path d="M4942 1269 c7 -20 44 -36 152 -64 53 -14 109 -33 124 -42 25 -16 26
-16 14 -1 -14 18 -66 37 -172 63 -36 9 -78 25 -94 37 -18 13 -27 16 -24 7z"/>
<path d="M5347 1201 c34 -86 -16 -189 -112 -232 -22 -10 -34 -19 -27 -19 19 0
73 29 100 54 57 51 78 146 47 206 -22 42 -26 37 -8 -9z"/>
<path d="M3128 1140 c22 -25 14 -57 -15 -68 -23 -9 -24 -11 -7 -11 42 -2 61
54 27 80 -15 11 -16 11 -5 -1z"/>
<path d="M4980 1130 c0 -23 37 -77 62 -91 22 -11 22 -10 -3 17 -15 16 -34 43
-42 59 -9 17 -16 23 -17 15z"/>
<path d="M4890 980 c-10 -6 -2 -7 25 -3 49 7 58 13 19 13 -16 0 -36 -5 -44
-10z"/>
<path d="M5018 963 c7 -3 16 -2 19 1 4 3 -2 6 -13 5 -11 0 -14 -3 -6 -6z"/>
<path d="M4408 953 c34 -2 88 -2 120 0 31 2 3 3 -63 3 -66 0 -92 -1 -57 -3z"/>
<path d="M5058 953 c7 -3 16 -2 19 1 4 3 -2 6 -13 5 -11 0 -14 -3 -6 -6z"/>
<path d="M5123 943 c15 -2 37 -2 50 0 12 2 0 4 -28 4 -27 0 -38 -2 -22 -4z"/>
</g>
</svg>
